<svg id="Layer_1" data-name="Layer 1" xmlns="http://www.w3.org/2000/svg" viewBox="0 0 890.71 377.09"><defs><style>.cls-1,.cls-2{fill:none;stroke-linecap:round;stroke-linejoin:round;stroke-width:4.08px;}.cls-1{stroke:#887b86;}.cls-2{stroke:#d6d1d3;}</style></defs><path class="cls-1" d="M490.58,487.75v-8.69c0-4.12-2.63-7.47-5.87-7.47H467.06c-3.24,0-5.87,3.35-5.87,7.47v8.4m38.54,4.94V477.45c0-7.11-4.27-12.87-9.53-12.87H461.57c-5.26,0-9.53,5.76-9.53,12.87V491.9m92.39-80.33a13.55,13.55,0,0,0-8.27-13.3c-18.14-8.16-107.08-8-120.25.05-8.5,5.21-8.18,13.25-8.18,13.25m156-8.93a17.37,17.37,0,0,0-10.61-17.06c-23.28-10.47-137.09-9.51-154.3.07-11.19,6.22-10.5,17-10.5,17m-18.78,22A20.69,20.69,0,0,0,382.23,445C410,457.47,548,457,566,444.91c12.65-8.5,12.5-20.24,12.5-20.24M370,404.64A20.72,20.72,0,0,0,382.65,425c27.74,12.47,165.8,12,183.81-.09,12.65-8.5,12.5-20.24,12.5-20.24m-209.11,38.9a20.69,20.69,0,0,0,12.64,20.32c10.94,4.93,39.07,7.84,70.21,8.81m47.89,0c31.4-1,58.41-4,65.71-8.89,12.65-8.5,12.5-20.24,12.5-20.24V404.05M369.85,463.57a20.69,20.69,0,0,0,12.64,20.32c27.73,12.48,165.8,12,183.81-.08,12.65-8.5,12.5-20.24,12.5-20.24V424.08m.12-28.76A20.71,20.71,0,0,0,566.28,375c-27.74-12.48-165.8-12-183.81.08-12.65,8.51-12.5,20.24-12.5,20.24v47m91.56-66.92v-41l-11,5.47,8.54,4.1m30.44,31.79V334l11,5.47L492,343.58m-69.43,1.65a4.48,4.48,0,1,1-4.47-4.47A4.48,4.48,0,0,1,422.55,345.23Zm110.44,6v22.55M418.08,351.22v22.55m119.39-29.45a4.48,4.48,0,1,1-4.48-4.48A4.48,4.48,0,0,1,537.47,344.32Zm-94.9,89.06V411.11l-11,5.47,8.54,4.11m-43.44,8.16v-23.1l-11,5.48,8.53,4.1m111,18.05V411.11l11,5.47-8.54,4.11m43.44,8.16v-23.1l11,5.48-8.53,4.1" transform="translate(-19.1 -236.66)"/><path class="cls-1" d="M465.79,537.59V527.9s-.27-8,8.6-7.93,8.52,8.11,8.52,8.11v9.08M469.19,543a8.63,8.63,0,0,1-3.4-5.4m8.82,34.9h-8.48m-.33,11.35v16.07s-.4,4.66,3.77,4.77c4.77.12,4.75-4.54,4.75-4.54l-.17-20.37.19,23.75s.72,4.68,4.51,4.68c4.1,0,4.15-4.69,4.15-4.69l-.12-39.39m-17.09-8.58v16.27a4.58,4.58,0,0,1-4.63,4c-4.17,0-4-4.76-4-4.76l.25-19.2s-.25-7.3,8.35-7.65h17.12c8.83.45,8.36,9.17,8.36,9.17l.05,11.38a3.89,3.89,0,0,1-3.87,3.52c-4.56.06-4.57-3.13-4.57-3.13l0-9.67" transform="translate(-19.1 -236.66)"/><path class="cls-2" d="M106.4,541.49s8.53-.71,8.53,5.93-8.53,6.24-8.53,6.24H29.67s-8.53,0-8.53,8.09,8.53,8.1,8.53,8.1H72.3m329.29-6.92c7.4-16.42,13.92-30.68,13.92-30.68M413,564.75c9.54-23.69,23.21-56.37,23.21-56.37m130.4,103.33c.11-2.68-34.56-79.37-34.56-79.37m11.31,56.5c.2-2.68-31.95-80.46-31.95-80.46M659.5,555.89l-34.41-21.07A27.86,27.86,0,0,0,613,531.89c-9,0-12.17,2.83-12.17,2.83l-24.37,17.21m181,29.44-53.24-32.61s-6.61-4.07-17-4.11c-12.79-.06-17.07,4-17.07,4l-34.21,24.15M710.28,563l74.41,44.83M705.21,488.75l12.79-8.1,12.79,8.1M705.21,463.2,718,455.1l12.79,8.1m-25.58,13.41,12.79-8.1,12.79,8.1M718,503.37v-47M248.66,400.76,270,388.46m-85.26,13.09,22.95,11.12m-22.95,45.91-13.36-6.83m41.18,71.57V490m-49.13-53.5,21.31,10.88m0-24.29L206,435.2m21.31-141.73V329.9M248.66,334l-21.32,12.15L206,334m42.63,121.47V390.65L270,378.5m-46.89,60.74V378.5l25.58-14.17m-63.95,155.9V447.34L206,435.2V500M163.4,485V436.46l21.31-13.41v-21.5L206,390.65V334l21.31-12.16L248.66,334v30.36L270,378.5v76.67M149,467.33V420.48L126.1,408.9,149,397.06l24.48,11.84v19M126.1,373.62l-23.67,12m0,23.27V385.63l-23.67-12m0,31.25V373.62l23.67-12.38,23.67,12.38v50.76M44.39,409.56v38.56m17,24.29V419.78l-17-10.22L63.79,397l19,10.6v44.55M310.54,354.7s.17,3.45-4,3.45a4.72,4.72,0,0,1-4.82-3.87s-1.49-7.86,6.28-7.86c8.67,0,9.26,8.8,9.26,8.8s0,14.67-15.44,14.67-15.44-14.67-15.44-14.67-.84-14.68,12.35-14.68v-5.81a11.63,11.63,0,0,1,6.23-10.41,13.39,13.39,0,0,1,6.13-1.37,12.53,12.53,0,0,1,12.31,8.8m79,35.07s3.78-24.86-18.7-26.26m-98.05,9.16s-16.14-2.45-17,12.15M337.25,338s-.85-6.21,4.69-6.21,6.18,6,6.18,6,1.37,11.62-12.36,11.62-12.35-14.46-12.35-14.46-1-17.82,15.44-17.82c15.44,0,15.44,8.5,15.44,8.5l7.61.15a20.51,20.51,0,0,1,20.18,19.89c0,.26,0,.53,0,.8,0,17.32-15.44,17.6-15.44,17.6h-9.27s-6.81-.09-6.86-8.85c0-8.13,6.86-8.25,6.86-8.25s6.87-1,7,5.57c.11,6.3-4.93,5.47-4.93,5.47M654.24,531a8.62,8.62,0,0,1,15.58,0s1.15,4.93,7.79,4.93,7.79-4.34,7.79-4.34a8.08,8.08,0,0,1,7.8-5.52c6.17,0,7.79,4.93,7.79,4.93m46.56-.88a8.62,8.62,0,0,1-15.58,0s-1.15-4.94-7.8-4.94-7.79,4.35-7.79,4.35a8.08,8.08,0,0,1-7.79,5.52c-6.17,0-7.79-4.93-7.79-4.93m-77.73-13.29a8.63,8.63,0,0,1,15.59,0s1.14,4.94,7.79,4.94,7.79-4.35,7.79-4.35A8.08,8.08,0,0,1,662,511.9c6.18,0,7.8,4.93,7.8,4.93m46.56-.88a8.63,8.63,0,0,1-15.59,0S699.66,511,693,511s-7.79,4.34-7.79,4.34a8.08,8.08,0,0,1-7.79,5.52c-6.17,0-7.79-4.93-7.79-4.93M214.38,531.38l31.48-19.1A27.9,27.9,0,0,1,258,509.39c8.95,0,12.15,2.89,12.15,2.89l24.3,17.3m-175.25,28.7,53.37-32.38s6.63-4,17-4c12.79,0,17.05,4,17.05,4l34.11,24.29M128.79,496s8.53,0,8.53-8.09c0,0,8.52-1.82,8.52-12.15s-12.79-12.14-12.79-12.14,0-8.1-12.78-8.1-12.79,8.1-12.79,8.1H99s-17-2.1-17,8.09,12,8.1,12,8.1S92.52,492,103.21,492m4.27-8.09L120.27,496m2.14-20.24-2.14,12.15V496s0,8.1-8.53,8.1v20.26m139.41-39h21.67m-24.16-29.95h25.58s8.52.48,8.52,6.32-7.17,5.84-7.17,5.84H240.13s-8.52-.61-8.52,5.77,8.52,6.38,8.52,6.38h27.72M166.38,540.08,91.79,584.62m193.46-80.95,12.79-8.1,12.79,8.1m-25.58-25.55L298,470l12.79,8.1m-25.58,13.41,12.79-8.1,12.79,8.1M298,518.29v-47m17-1.46,12.79-8.1,12.79,8.1m-25.58,28.4,12.79-8.09,12.79,8.09m-25.58-15,12.79-8.1,12.79,8.1M327.88,510v-47M344.93,512l12.79-8.09L370.51,512m-25.58-25.55,12.79-8.1,12.79,8.1m-25.58,13.41,12.79-8.1,12.79,8.1m-12.79,26.76v-47m266.56,11,12.79-8.1,12.79,8.1m-25.58-25.55,12.79-8.1,12.79,8.1m-25.58,13.41,12.79-8.1,12.79,8.1m-12.79,26.76v-47m21.36-6.8,12.79-8.09L684,451.41m-25.58,28.41,12.79-8.09L684,479.82m-25.58-15,12.79-8.09L684,464.82m-12.79,26.77v-47M200.51,255.9l-8.77,5.55L183,255.9M690.24,498l-12.79,8.1L664.66,498M67.42,526.77h66.67M617.58,327.38s0-12.36-13-12.27m-33.76,28.56c.18,8.85,7.39,16.21,14.39,16.43m49.56-11s.34-5.4-4.6-5.47c-7.71-.11-6.73,8.16-6.73,8.16s.16,8.12,11.67,8.26c0,0,12,1.81,12.35-14.07.28-14.65-12.35-14.09-12.35-14.09l-9.88-.06s0-23.59-24.71-23.4-24.7,23.46-24.7,23.46,0,23.47,19.76,23.47c19.16,0,17.29-14.08,17.29-14.08s.42-9.39-9.88-9.39-9.88,7-9.88,7-.5,4.7,4.94,4.7M541.44,360S539,346,553.79,346H561s-.17-14.09,13.63-14.09m88.22,26.7s1.13-6.45-5.66-6.45h-4.53m17,7.91S672.21,346,657.39,346h-9.88M722.7,446.73h20.9M852.8,516h55M205.57,297.22s-1-9.75,6.84-9.75,6.85,9.75,6.85,9.75,0,12.45-13.69,13c0,0-17.11,2.51-17.12-19.5,0-19.52,17.12-19.52,17.12-19.52l13.69-.08s0-32.67,34.22-32.42,34.22,32.5,34.22,32.5,0,32.52-27.37,32.52c-26.55,0-24-19.5-24-19.5s-.58-13,13.69-13S263.75,281,263.75,281s.7,6.52-6.85,6.52m78.5,22.75s3.43-19.5-17.11-19.5h-10s.23-19.52-18.88-19.52M165.06,307.38s-1.8-9.76,9.73-9.76h5.29m-22.43,12.6s-3.42-19.5,17.11-19.5h13.69m210.32,39.4h41.07s6.85-.55,6.85-6.5-6.85-6.5-6.85-6.5h-65s-6.84.79-6.84-6.5,6.84-6.52,6.84-6.52H484.33s6.85-.51,6.85-6.5-6.85-6.5-6.85-6.5h-24s-6.84.46-6.84-6.49,6.84-6.5,6.84-6.5H556.2s6.85,0,6.85,6.51-6.85,6.49-6.85,6.49H511.71s-6.84,0-6.84,6.5,6.84,6.51,6.84,6.51H587m-246.41-26s-6.84.31-6.84,6.5,6.84,6.49,6.84,6.49h95.83s6.84,0,6.84-6.49-6.84-6.5-6.84-6.5Zm329.29-18.95h-30.8s-6.84-.66-6.84,4.89,6.84,4.86,6.84,4.86l47.58,0s7.18-.33,7.18,6.47-6.84,6.5-6.84,6.5H591.17s-6.85-.57-6.85,4.76,6.85,5,6.85,5h61.6s6.85,0,6.85,6.5-6.85,6.5-6.85,6.5H618.55M154.74,258.2h-30.8s-6.85-.66-6.85,4.9,6.85,4.85,6.85,4.85l47.57,0s7.19-.33,7.19,6.47-6.85,6.5-6.85,6.5H76s-6.84-.57-6.84,4.77,6.84,5,6.84,5h61.61s6.84,0,6.84,6.5-6.84,6.5-6.84,6.5H103.4m158,33.71h9.18s6.28,0,6.28-6c0-6.36-5.54-6.36-5.54-6.36H247.11m70.34,57.1h9.19s6.27,0,6.27-6c0-6.36-5.54-6.35-5.54-6.35H303.16m-197-24.47H78.82s-8.38.88-8.38-5.62,7.43-6.5,8.38-6.5h39.65s6.45,1,6.45-4.37-5.26-5.38-6-5.38H84.3m91.3,19.19H148.22s-8.37-.88-8.37,5.62,7.43,6.5,8.37,6.5h39.65s6.46-1,6.46,4.37-5.26,5.38-6,5.38H153.71m-9.12-.28H117.21a11.56,11.56,0,0,0-5.47.86m14.36,11.26h30.76s6.45-1,6.45,4.37-5.26,5.38-6,5.38H126.1M722,377.94H773.2s8.53-.68,8.53-8.1-8.53-8.09-8.53-8.09h-81s-8.52,1-8.52-8.1,8.52-8.12,8.52-8.12H828.62M713.19,377.82H690.45s-6.44.31-6.44,6.35,6.44,6.35,6.44,6.35m-75.18-14.45H595.73s-6.32.3-6.32,6.07,6.32,6.07,6.32,6.07h32.34m104.68,2s-6.31.3-6.31,6.07,6.31,6.07,6.31,6.07h34.4s6.31,0,6.31-6.07-6.31-6.07-6.31-6.07ZM653.07,314s-8.53.39-8.53,8.09,8.53,8.1,8.53,8.1H772.43s8.53,0,8.53-8.1-8.53-8.09-8.53-8.09ZM336.41,541.52H298s-8.53-.83-8.53,6.09,8.53,6,8.53,6l59.26,0s8.95-.42,8.95,8.06-8.53,8.09-8.53,8.09H238.36s-8.53-.71-8.53,5.94,8.53,6.23,8.53,6.23h76.73s8.53,0,8.53,8.1-8.53,8.09-8.53,8.09H272.46M843.72,486.55c-2-1.66-3.88-4.49-3.88-9.24,0-9.69,12-11.39,12-11.39s0-7.61,12-7.61,12,7.61,12,7.61h8s16-2,16,7.59-11.23,7.6-11.23,7.6,1.27,11.4-8.77,11.4m-4-7.6-12,11.4m-2-19,2,11.4v7.6s0,7.6,8,7.6v12" transform="translate(-19.1 -236.66)"/><path class="cls-2" d="M270,311.69c8.19-.13,19.89-11.89,20.63-18.22m63.91,100.82h2.06s6.31,0,6.31-6.07-6.31-6.07-6.31-6.07H341.71m334.42,35.57,14.11,7.84m-95.81-7.09,8,5.61M764.24,527.55h116m-64.13-52V450.91l12.75.21m-12.75,64.4V483.21M786.3,414.15v-27.9l42.52.1v64.87l4.87-.2v36.36l6.25.1M756.5,430.72H787m-18.42,48.69h29.81M756.5,463.07h42.72M756.5,446.73h41.67m0,44.77H756.5m0,4.65V465.71M840,516l-.07-28.47h15V516h-116V467.24H756.5V414.58h42.61L799.36,516M498.84,315.61l5.85,5.56,5.85-5.56M515,327.19l4.26,4.05,4.26-4.05m173,152.63V418.89l-21.24-11.27,22.86-11.83,24.09,11v39.91m-46.95-74.38-23.67,12m0,35v-35l-23.67-12m0,31.24V372.35L651.65,360l23.67,12.39v58.57m-80.89-22.63v47.15m16.92,41.63V419.35l-16.92-11.06L613,395.74l19.78,11.88v42.2M585,455.44h9.48M298,425.81s-8.53,0-8.53-8.09c0,0-8.52-1.82-8.52-12.15s12.79-12.14,12.79-12.14,0-8.1,12.79-8.1,12.79,8.1,12.79,8.1h8.52s17.05-2.09,17.05,8.1-12,8.09-12,8.09,1.36,12.15-9.34,12.15m-4.26-8.1-12.79,12.14m-2.15-20.24,2.15,12.15v8.09s0,8.1,8.52,8.1v20.26m48,1.27H263.73M363,436.82H303.35M363,444.91H284.2M529.8,313.34h43.65" transform="translate(-19.1 -236.66)"/></svg>