<svg id="Layer_1" data-name="Layer 1" xmlns="http://www.w3.org/2000/svg" viewBox="0 0 864 182.04"><defs><style>.cls-1{fill:#d6d1d3;}.cls-2{fill:#887b86;}</style></defs><path class="cls-1" d="M447.46,419.45a78.09,78.09,0,0,1-78.09,78.08h-1.88a78.08,78.08,0,0,1-78.08-78.08V417a78.08,78.08,0,0,1,78.08-78.08h1.88A78.09,78.09,0,0,1,447.46,417Zm-79-85.73h0a84.51,84.51,0,1,0,84.51,84.51,84.51,84.51,0,0,0-84.51-84.51" transform="translate(-52.26 -320.7)"/><path class="cls-1" d="M319.62,362.68c.63-.56,1.28-1.12,1.93-1.66-.65.54-1.3,1.1-1.93,1.66" transform="translate(-52.26 -320.7)"/><path class="cls-1" d="M418.08,473c-.64.59-1.29,1.16-1.94,1.72.65-.56,1.3-1.13,1.94-1.72" transform="translate(-52.26 -320.7)"/><path class="cls-1" d="M442,417.68a73.53,73.53,0,0,0-73.54-73.54h0A73.23,73.23,0,0,0,321.56,361l3.6,3.59a67.26,67.26,0,0,1,42.75-15.25h1a67.53,67.53,0,0,1,67.54,67.53v2.7A67.22,67.22,0,0,1,422,461.41L425.6,465A73.26,73.26,0,0,0,442,418.78Z" transform="translate(-52.26 -320.7)"/><path class="cls-1" d="M410.28,473A67.24,67.24,0,0,1,369,487.11h-1a67.52,67.52,0,0,1-67.53-67.53v-2.7a67.25,67.25,0,0,1,13.4-40.39l-3.64-3.64q1.68-2.19,3.52-4.24a73.26,73.26,0,0,0-18.77,49.07v1.1a73.54,73.54,0,0,0,121,56.21c-.65.54-1.3,1.08-2,1.61Z" transform="translate(-52.26 -320.7)"/><path class="cls-1" d="M313.66,368.61Z" transform="translate(-52.26 -320.7)"/><path class="cls-1" d="M416.14,474.75l-.29.24.29-.24" transform="translate(-52.26 -320.7)"/><polyline class="cls-1" points="365.82 152.33 365.82 152.33 365.81 152.33 365.82 152.33"/><path class="cls-1" d="M313.78,376.49l96.5,96.5c1.45-1.12,2.86-2.31,4.21-3.54l-97.23-97.23c-1.21,1.37-2.38,2.8-3.48,4.27" transform="translate(-52.26 -320.7)"/><path class="cls-1" d="M313.78,376.49c1.1-1.47,2.27-2.9,3.48-4.27l-3.6-3.61h0q-1.85,2.06-3.52,4.24Z" transform="translate(-52.26 -320.7)"/><path class="cls-1" d="M410.28,473l3.61,3.61c.66-.53,1.31-1.07,2-1.61l.28-.24c.66-.56,1.31-1.13,1.95-1.72h0l-3.59-3.58c-1.35,1.23-2.76,2.42-4.21,3.54" transform="translate(-52.26 -320.7)"/><path class="cls-1" d="M418.38,465.59c1.25-1.34,2.45-2.74,3.59-4.18L325.16,364.6q-2.13,1.74-4.11,3.65Z" transform="translate(-52.26 -320.7)"/><polyline class="cls-1" points="373.33 144.34 373.33 144.34 373.33 144.34 373.33 144.34"/><path class="cls-1" d="M319.39,362.89l.23-.21-.23.21" transform="translate(-52.26 -320.7)"/><path class="cls-1" d="M321.56,361h0Z" transform="translate(-52.26 -320.7)"/><path class="cls-1" d="M418.38,465.59l3.6,3.59q1.89-2,3.61-4.14h0L422,461.41c-1.14,1.44-2.34,2.84-3.59,4.18" transform="translate(-52.26 -320.7)"/><path class="cls-1" d="M321.05,368.25q2-1.9,4.11-3.65l-3.6-3.59h0c-.65.54-1.3,1.1-1.93,1.66l-.23.21c-.65.58-1.3,1.17-1.93,1.78Z" transform="translate(-52.26 -320.7)"/><path class="cls-1" d="M215.8,419.45a78.09,78.09,0,0,1-78.09,78.08h-1.88a78.08,78.08,0,0,1-78.08-78.08V417a78.08,78.08,0,0,1,78.08-78.08h1.88A78.09,78.09,0,0,1,215.8,417Zm-79-85.73h0a84.51,84.51,0,1,0,84.51,84.51,84.51,84.51,0,0,0-84.51-84.51" transform="translate(-52.26 -320.7)"/><path class="cls-1" d="M88,362.68c.63-.56,1.28-1.12,1.93-1.66-.65.54-1.3,1.1-1.93,1.66" transform="translate(-52.26 -320.7)"/><path class="cls-1" d="M186.42,473c-.64.59-1.29,1.16-1.94,1.72.65-.56,1.3-1.13,1.94-1.72" transform="translate(-52.26 -320.7)"/><path class="cls-1" d="M210.31,417.68a73.53,73.53,0,0,0-73.54-73.54h0A73.23,73.23,0,0,0,89.9,361l3.6,3.59a67.26,67.26,0,0,1,42.75-15.25h1a67.53,67.53,0,0,1,67.54,67.53v2.7a67.22,67.22,0,0,1-14.52,41.83l3.63,3.63a73.26,73.26,0,0,0,16.37-46.26Z" transform="translate(-52.26 -320.7)"/><path class="cls-1" d="M178.62,473a67.24,67.24,0,0,1-41.33,14.12h-1a67.52,67.52,0,0,1-67.53-67.53v-2.7a67.25,67.25,0,0,1,13.4-40.39l-3.64-3.64q1.68-2.19,3.52-4.24a73.26,73.26,0,0,0-18.77,49.07v1.1a73.54,73.54,0,0,0,121,56.21c-.64.54-1.3,1.08-2,1.61Z" transform="translate(-52.26 -320.7)"/><path class="cls-1" d="M82,368.61Z" transform="translate(-52.26 -320.7)"/><path class="cls-1" d="M184.48,474.75l-.29.24.29-.24" transform="translate(-52.26 -320.7)"/><polyline class="cls-1" points="134.16 152.33 134.16 152.33 134.15 152.33 134.16 152.33"/><path class="cls-1" d="M82.12,376.49l96.5,96.5c1.45-1.12,2.86-2.31,4.21-3.54L85.6,372.22c-1.21,1.37-2.38,2.8-3.48,4.27" transform="translate(-52.26 -320.7)"/><path class="cls-1" d="M82.12,376.49c1.1-1.47,2.27-2.9,3.48-4.27L82,368.61h0q-1.84,2.06-3.52,4.24Z" transform="translate(-52.26 -320.7)"/><path class="cls-1" d="M178.62,473l3.61,3.61c.66-.53,1.32-1.07,2-1.61l.29-.24c.65-.56,1.3-1.13,1.94-1.72h0l-3.59-3.58c-1.35,1.23-2.76,2.42-4.21,3.54" transform="translate(-52.26 -320.7)"/><path class="cls-1" d="M186.72,465.59c1.25-1.34,2.45-2.74,3.59-4.18L93.5,364.6q-2.13,1.74-4.11,3.65Z" transform="translate(-52.26 -320.7)"/><polyline class="cls-1" points="141.68 144.34 141.68 144.34 141.67 144.34 141.68 144.34"/><path class="cls-1" d="M87.73,362.89l.23-.21-.23.21" transform="translate(-52.26 -320.7)"/><path class="cls-1" d="M89.9,361h0Z" transform="translate(-52.26 -320.7)"/><path class="cls-1" d="M186.72,465.59l3.6,3.59q1.89-2,3.61-4.14h0l-3.63-3.63c-1.14,1.44-2.34,2.84-3.59,4.18" transform="translate(-52.26 -320.7)"/><path class="cls-1" d="M89.39,368.25q2-1.9,4.11-3.65L89.9,361h0c-.65.54-1.3,1.1-1.93,1.66l-.23.21c-.65.58-1.3,1.17-1.93,1.78Z" transform="translate(-52.26 -320.7)"/><path class="cls-1" d="M679.12,419.45A78.09,78.09,0,0,1,601,497.53h-1.88a78.08,78.08,0,0,1-78.08-78.08V417a78.08,78.08,0,0,1,78.08-78.08H601A78.09,78.09,0,0,1,679.12,417Zm-79-85.73h0a84.51,84.51,0,1,0,84.51,84.51,84.51,84.51,0,0,0-84.51-84.51" transform="translate(-52.26 -320.7)"/><path class="cls-1" d="M551.28,362.68c.63-.56,1.28-1.12,1.93-1.66-.65.54-1.3,1.1-1.93,1.66" transform="translate(-52.26 -320.7)"/><path class="cls-1" d="M649.74,473c-.64.59-1.29,1.16-1.94,1.72.65-.56,1.3-1.13,1.94-1.72" transform="translate(-52.26 -320.7)"/><path class="cls-1" d="M673.63,417.68a73.53,73.53,0,0,0-73.54-73.54h0A73.23,73.23,0,0,0,553.22,361l3.6,3.59a67.26,67.26,0,0,1,42.75-15.25h1a67.53,67.53,0,0,1,67.54,67.53v2.7a67.22,67.22,0,0,1-14.52,41.83l3.63,3.63a73.26,73.26,0,0,0,16.37-46.26Z" transform="translate(-52.26 -320.7)"/><path class="cls-1" d="M641.94,473a67.24,67.24,0,0,1-41.33,14.12h-1A67.52,67.52,0,0,1,532,419.58v-2.7a67.25,67.25,0,0,1,13.4-40.39l-3.64-3.64q1.68-2.19,3.52-4.24a73.26,73.26,0,0,0-18.77,49.07v1.1a73.54,73.54,0,0,0,121,56.21c-.65.54-1.3,1.08-2,1.61Z" transform="translate(-52.26 -320.7)"/><path class="cls-1" d="M545.32,368.61Z" transform="translate(-52.26 -320.7)"/><path class="cls-1" d="M647.8,474.75l-.29.24.29-.24" transform="translate(-52.26 -320.7)"/><polyline class="cls-1" points="597.48 152.33 597.48 152.33 597.47 152.33 597.48 152.33"/><path class="cls-1" d="M545.44,376.49l96.5,96.5c1.45-1.12,2.86-2.31,4.21-3.54l-97.23-97.23c-1.21,1.37-2.38,2.8-3.48,4.27" transform="translate(-52.26 -320.7)"/><path class="cls-1" d="M545.44,376.49c1.1-1.47,2.27-2.9,3.48-4.27l-3.6-3.61h0q-1.83,2.06-3.51,4.24Z" transform="translate(-52.26 -320.7)"/><path class="cls-1" d="M641.94,473l3.61,3.61c.66-.53,1.31-1.07,2-1.61l.28-.24c.66-.56,1.31-1.13,2-1.72h0l-3.59-3.58c-1.35,1.23-2.76,2.42-4.21,3.54" transform="translate(-52.26 -320.7)"/><path class="cls-1" d="M650,465.59c1.25-1.34,2.45-2.74,3.59-4.18L556.82,364.6q-2.13,1.74-4.11,3.65Z" transform="translate(-52.26 -320.7)"/><polyline class="cls-1" points="605 144.34 605 144.34 604.99 144.34 605 144.34"/><path class="cls-1" d="M551.05,362.89l.23-.21-.23.21" transform="translate(-52.26 -320.7)"/><path class="cls-1" d="M553.22,361h0Z" transform="translate(-52.26 -320.7)"/><path class="cls-1" d="M650,465.59l3.6,3.59c1.25-1.33,2.46-2.71,3.61-4.14h0l-3.63-3.63c-1.14,1.44-2.34,2.84-3.59,4.18" transform="translate(-52.26 -320.7)"/><path class="cls-1" d="M552.71,368.25q2-1.9,4.11-3.65l-3.6-3.59h0c-.65.54-1.3,1.1-1.93,1.66l-.23.21c-.65.58-1.3,1.17-1.93,1.78Z" transform="translate(-52.26 -320.7)"/><path class="cls-1" d="M910.78,419.45a78.09,78.09,0,0,1-78.09,78.08h-1.88a78.08,78.08,0,0,1-78.08-78.08V417a78.08,78.08,0,0,1,78.08-78.08h1.88A78.09,78.09,0,0,1,910.78,417Zm-79-85.73h0a84.51,84.51,0,1,0,84.51,84.51,84.51,84.51,0,0,0-84.51-84.51" transform="translate(-52.26 -320.7)"/><path class="cls-1" d="M782.94,362.68c.63-.56,1.28-1.12,1.93-1.66-.65.54-1.3,1.1-1.93,1.66" transform="translate(-52.26 -320.7)"/><path class="cls-1" d="M881.4,473c-.64.59-1.29,1.16-1.94,1.72.65-.56,1.3-1.13,1.94-1.72" transform="translate(-52.26 -320.7)"/><path class="cls-1" d="M905.29,417.68a73.53,73.53,0,0,0-73.54-73.54h0A73.23,73.23,0,0,0,784.88,361l3.6,3.59a67.26,67.26,0,0,1,42.75-15.25h1a67.53,67.53,0,0,1,67.54,67.53v2.7a67.22,67.22,0,0,1-14.52,41.83l3.63,3.63a73.26,73.26,0,0,0,16.37-46.26Z" transform="translate(-52.26 -320.7)"/><path class="cls-1" d="M873.6,473a67.24,67.24,0,0,1-41.33,14.12h-1a67.52,67.52,0,0,1-67.53-67.53v-2.7a67.25,67.25,0,0,1,13.4-40.39l-3.64-3.64q1.68-2.19,3.52-4.24a73.26,73.26,0,0,0-18.77,49.07v1.1a73.54,73.54,0,0,0,121,56.21c-.65.54-1.3,1.08-2,1.61Z" transform="translate(-52.26 -320.7)"/><path class="cls-1" d="M777,368.61h0Z" transform="translate(-52.26 -320.7)"/><path class="cls-1" d="M879.45,474.75l-.28.24.28-.24" transform="translate(-52.26 -320.7)"/><polyline class="cls-1" points="829.14 152.33 829.14 152.33 829.13 152.33 829.14 152.33"/><path class="cls-1" d="M777.1,376.49,873.6,473c1.45-1.12,2.86-2.31,4.21-3.54l-97.23-97.23c-1.21,1.37-2.38,2.8-3.48,4.27" transform="translate(-52.26 -320.7)"/><path class="cls-1" d="M777.1,376.49c1.1-1.47,2.27-2.9,3.48-4.27l-3.6-3.61h0q-1.83,2.06-3.51,4.24Z" transform="translate(-52.26 -320.7)"/><path class="cls-1" d="M873.6,473l3.61,3.61c.66-.53,1.31-1.07,2-1.61l.28-.24c.66-.56,1.31-1.13,1.95-1.72h0l-3.59-3.58c-1.35,1.23-2.76,2.42-4.21,3.54" transform="translate(-52.26 -320.7)"/><path class="cls-1" d="M881.7,465.59c1.25-1.34,2.45-2.74,3.59-4.18L788.48,364.6q-2.13,1.74-4.11,3.65Z" transform="translate(-52.26 -320.7)"/><polyline class="cls-1" points="836.65 144.34 836.65 144.34 836.65 144.34 836.65 144.34"/><path class="cls-1" d="M782.71,362.89l.23-.21-.23.21" transform="translate(-52.26 -320.7)"/><path class="cls-1" d="M784.88,361h0Z" transform="translate(-52.26 -320.7)"/><path class="cls-1" d="M881.7,465.59l3.6,3.59c1.25-1.33,2.46-2.71,3.61-4.14h0l-3.63-3.63c-1.14,1.44-2.34,2.84-3.59,4.18" transform="translate(-52.26 -320.7)"/><path class="cls-1" d="M784.37,368.25q2-1.9,4.11-3.65l-3.6-3.59h0c-.65.54-1.3,1.1-1.93,1.66l-.23.21c-.65.58-1.3,1.17-1.93,1.78Z" transform="translate(-52.26 -320.7)"/><path class="cls-2" d="M385,425.08a2.75,2.75,0,0,0-2.75,2.74v33.71H354.82v-5.2h19.32a2.61,2.61,0,0,0,2.61-2.61h0a2.61,2.61,0,0,0-2.61-2.61H354.82V427.82a2.75,2.75,0,0,0-5.49,0v25.9h0V464s0,0,0,.07,0,0,0,.06a2.61,2.61,0,0,0,2.61,2.61h33.17a2.61,2.61,0,0,0,2.61-2.61.13.13,0,0,0,0-.06.2.2,0,0,0,0-.07V427.82a2.74,2.74,0,0,0-2.74-2.74" transform="translate(-52.26 -320.7)"/><path class="cls-2" d="M418.83,354.8l1.75-1.75a2.74,2.74,0,0,0-3.88-3.88L415,350.92l-2-2a2.61,2.61,0,0,0-3.69,3.69l2,2-1.73,1.73a2.74,2.74,0,0,0,3.88,3.88l1.73-1.73,2,2a2.61,2.61,0,0,0,3.69-3.69Z" transform="translate(-52.26 -320.7)"/><path class="cls-2" d="M368.31,414.72a8.27,8.27,0,0,1-8.21-7.66,12.81,12.81,0,0,0,7.47,2.41h1.68a12.8,12.8,0,0,0,7.26-2.26,8.25,8.25,0,0,1-8.2,7.51m-8.13-28.27a8.23,8.23,0,1,1,16.45,0V396a8.23,8.23,0,1,1-16.45,0Zm52.16-5.62a8.25,8.25,0,0,0-8.22,7.8,17.35,17.35,0,0,1-17.21,15.62h-2.3v0h-5.07a12.77,12.77,0,0,0,2.58-7.68V385.89A12.91,12.91,0,0,0,369.25,373h-1.68a12.91,12.91,0,0,0-12.88,12.87V396.6a12.8,12.8,0,0,0,2.55,7.64h-11.7a30.49,30.49,0,0,0-29.18,30.37v.89h0a8.26,8.26,0,0,0,16.5,0A17.38,17.38,0,0,1,347,420.16h0a2.69,2.69,0,1,0-.89-5.3h0a21.75,21.75,0,0,0-18.79,20.64h0a2.74,2.74,0,0,1-5.48,0v0a26.13,26.13,0,0,1,24.75-26h8.23a12.92,12.92,0,0,0,12.64,10.47h1.68a12.92,12.92,0,0,0,12.64-10.42h3v0H388a21.72,21.72,0,0,0,21.63-20.83h0a2.75,2.75,0,0,1,5.49,0v0a26.14,26.14,0,0,1-24.82,26,2.61,2.61,0,1,0,0,5.21h1.12a30.5,30.5,0,0,0,29.18-30.38v-.89h0a8.31,8.31,0,0,0-8.28-7.8" transform="translate(-52.26 -320.7)"/><path class="cls-2" d="M434.08,388.81a2.61,2.61,0,1,0,2.74,2.61,2.68,2.68,0,0,0-2.74-2.61" transform="translate(-52.26 -320.7)"/><path class="cls-2" d="M302.69,399a2.61,2.61,0,1,0,2.74,2.61,2.68,2.68,0,0,0-2.74-2.61" transform="translate(-52.26 -320.7)"/><path class="cls-2" d="M434.44,341.91h-.27a2.61,2.61,0,1,0,0,5.21h.27a2.61,2.61,0,0,0,0-5.21" transform="translate(-52.26 -320.7)"/><path class="cls-2" d="M302.46,383.48a2.61,2.61,0,1,0-2.74-2.61,2.68,2.68,0,0,0,2.74,2.61" transform="translate(-52.26 -320.7)"/><path class="cls-2" d="M340.78,367.77a2.61,2.61,0,1,0-2.75-2.61,2.68,2.68,0,0,0,2.75,2.61" transform="translate(-52.26 -320.7)"/><path class="cls-2" d="M308.09,341.75a2.61,2.61,0,1,0,2.74,2.61,2.68,2.68,0,0,0-2.74-2.61" transform="translate(-52.26 -320.7)"/><path class="cls-2" d="M316.4,386a2.76,2.76,0,1,1,2.76,2.6,2.69,2.69,0,0,1-2.76-2.6m11,0a8.24,8.24,0,1,0-8.22,7.79,8,8,0,0,0,8.22-7.79" transform="translate(-52.26 -320.7)"/><path class="cls-2" d="M357.72,367.42a2.61,2.61,0,1,0,3.68-3.69l-7.93-7.93a2.61,2.61,0,1,0-3.68,3.69Z" transform="translate(-52.26 -320.7)"/><path class="cls-2" d="M368.53,367.75a2.74,2.74,0,0,0,2.74-2.74V354.86a2.74,2.74,0,1,0-5.48,0V365a2.74,2.74,0,0,0,2.74,2.74" transform="translate(-52.26 -320.7)"/><path class="cls-2" d="M379.33,367.42l7.93-7.93a2.61,2.61,0,0,0-3.68-3.69l-7.93,7.93a2.61,2.61,0,0,0,3.68,3.69" transform="translate(-52.26 -320.7)"/><path class="cls-2" d="M153.28,425a2.75,2.75,0,0,0-2.75,2.75v33.76H123.12v-5.2h19.32a2.61,2.61,0,0,0,2.61-2.61h0a2.61,2.61,0,0,0-2.61-2.61H123.12V427.77a2.75,2.75,0,1,0-5.49,0v26h0V464s0,0,0,.07,0,0,0,.06a2.61,2.61,0,0,0,2.61,2.61h33.17a2.61,2.61,0,0,0,2.61-2.61.13.13,0,0,0,0-.06.2.2,0,0,0,0-.07V427.77a2.75,2.75,0,0,0-2.74-2.75" transform="translate(-52.26 -320.7)"/><path class="cls-2" d="M186.27,346.78h-2.88V344.3a2.74,2.74,0,1,0-5.48,0v2.48h-2.85a2.61,2.61,0,1,0,0,5.21h2.85v2.45a2.74,2.74,0,1,0,5.48,0V352h2.88a2.61,2.61,0,1,0,0-5.21" transform="translate(-52.26 -320.7)"/><path class="cls-2" d="M114.73,331.14h2.85v2.45a2.75,2.75,0,0,0,5.49,0v-2.45H126a2.61,2.61,0,1,0,0-5.21h-2.88v-2.48a2.75,2.75,0,1,0-5.49,0v2.48h-2.85a2.61,2.61,0,0,0,0,5.21" transform="translate(-52.26 -320.7)"/><path class="cls-2" d="M136.75,414.63a8.26,8.26,0,0,1-8.21-7.66,12.74,12.74,0,0,0,7.47,2.42h1.67a12.74,12.74,0,0,0,7.27-2.27,8.27,8.27,0,0,1-8.2,7.51m-8.13-28.27a8.23,8.23,0,1,1,16.45,0V396a8.23,8.23,0,0,1-16.45,0ZM85.18,360.44l5-2.42v4.84Zm95.38,20.3a8.25,8.25,0,0,0-8.21,7.81,17.35,17.35,0,0,1-17.21,15.61h-2.31v0H148a12.8,12.8,0,0,0,2.58-7.69V385.8a12.91,12.91,0,0,0-12.88-12.87H136a12.91,12.91,0,0,0-12.88,12.87v10.71a12.8,12.8,0,0,0,2.58,7.69h-5v0h-2.3a17.34,17.34,0,0,1-17.21-15.61,8.27,8.27,0,0,0-5.53-7.34V353.63s0-.05,0-.07a2.4,2.4,0,0,0,0-.28,2.51,2.51,0,0,0,0-.27,1.42,1.42,0,0,0-.07-.22,2.09,2.09,0,0,0-.11-.3s0,0,0-.06a1,1,0,0,1-.08-.14L95.1,352c0-.07-.1-.12-.16-.19a1.8,1.8,0,0,0-.19-.2,1.56,1.56,0,0,0-.2-.16,1.84,1.84,0,0,0-.22-.17l-.22-.11a2.06,2.06,0,0,0-.26-.12l-.23-.07-.28-.07a2.4,2.4,0,0,0-.28,0l-.18,0h-.07a2.85,2.85,0,0,0-.29,0l-.26,0L92,351l-.29.11-.06,0-14,6.81-.12.08-.13.07a2.49,2.49,0,0,0-.31.23l-.1.09a3.58,3.58,0,0,0-.27.29.94.94,0,0,0-.09.12,3,3,0,0,0-.21.33l0,.06a.49.49,0,0,0,0,.11,1.75,1.75,0,0,0-.12.32,2.25,2.25,0,0,0,0,.22,2.93,2.93,0,0,0,0,.29,3.39,3.39,0,0,0,0,.52,2.93,2.93,0,0,0,0,.29,2.25,2.25,0,0,0,0,.22,1.75,1.75,0,0,0,.12.32.36.36,0,0,0,0,.11l0,.06a3,3,0,0,0,.21.33l.08.12.28.29.1.09a2.49,2.49,0,0,0,.31.23l.13.07.12.08L90.14,369v12.27a8.32,8.32,0,0,0-5.49,7.31h0v.88a30.49,30.49,0,0,0,29.18,30.38H115a2.61,2.61,0,0,0,0-5.21,26.13,26.13,0,0,1-24.82-26v0a2.74,2.74,0,0,1,5.48,0h0a21.72,21.72,0,0,0,21.64,20.82h3v0h3a12.92,12.92,0,0,0,12.63,10.43h1.68a12.92,12.92,0,0,0,12.63-10.43h3v0h3a21.72,21.72,0,0,0,21.64-20.82h0a2.74,2.74,0,0,1,5.48,0v0a26.13,26.13,0,0,1-24.82,26,2.61,2.61,0,0,0,0,5.21h1.13a30.49,30.49,0,0,0,29.18-30.38v-.88h0a8.33,8.33,0,0,0-8.29-7.81" transform="translate(-52.26 -320.7)"/><path class="cls-2" d="M202.64,367.76a2.61,2.61,0,1,0,2.74,2.61,2.68,2.68,0,0,0-2.74-2.61" transform="translate(-52.26 -320.7)"/><path class="cls-2" d="M70.9,378.19a2.61,2.61,0,1,0,2.74,2.61,2.67,2.67,0,0,0-2.74-2.61" transform="translate(-52.26 -320.7)"/><path class="cls-2" d="M114.92,373a2.61,2.61,0,1,0-2.74-2.61,2.68,2.68,0,0,0,2.74,2.61" transform="translate(-52.26 -320.7)"/><path class="cls-2" d="M197.2,336.35a2.61,2.61,0,1,0-2.74-2.61,2.68,2.68,0,0,0,2.74,2.61" transform="translate(-52.26 -320.7)"/><path class="cls-2" d="M79.28,344.29a2.75,2.75,0,1,0-2.74,2.61,2.68,2.68,0,0,0,2.74-2.61" transform="translate(-52.26 -320.7)"/><path class="cls-2" d="M158.69,372.93a2.74,2.74,0,0,0,2.74-2.74V360a2.74,2.74,0,0,0-5.48,0v10.15a2.74,2.74,0,0,0,2.74,2.74" transform="translate(-52.26 -320.7)"/><path class="cls-2" d="M158.56,383.35h.27a2.61,2.61,0,0,0,0-5.22h-.27a2.61,2.61,0,1,0,0,5.22" transform="translate(-52.26 -320.7)"/><path class="cls-2" d="M616.56,437.89a2.75,2.75,0,0,0-2.75,2.75v20.89H586.4v-5.2h19.32a2.61,2.61,0,0,0,2.61-2.61h0a2.61,2.61,0,0,0-2.61-2.61H586.4v-2.45a2.75,2.75,0,1,0-5.49,0v5.06h0V464s0,0,0,.06,0,.05,0,.07a2.61,2.61,0,0,0,2.61,2.61H616.7a2.6,2.6,0,0,0,2.6-2.61V440.64a2.75,2.75,0,0,0-2.74-2.75" transform="translate(-52.26 -320.7)"/><path class="cls-2" d="M600,409.44a8.27,8.27,0,0,1-8.22-7.66,12.77,12.77,0,0,0,7.47,2.42h1.68a12.79,12.79,0,0,0,7.27-2.27,8.27,8.27,0,0,1-8.2,7.51m-8.14-28.27a8.23,8.23,0,0,1,16.46,0v9.6a8.23,8.23,0,0,1-16.46,0Zm53.25,55.13a16.91,16.91,0,0,1-14.83-13.54,1.1,1.1,0,0,0,0-.18V409.41h0a8.6,8.6,0,0,0-1-4.16,10.24,10.24,0,0,0-2.9-3.31,14.22,14.22,0,0,0-4.37-2.19,18.41,18.41,0,0,0-5.43-.77h-5.34a12.76,12.76,0,0,0,2.56-7.66V380.61a12.91,12.91,0,0,0-12.87-12.87h-1.68a12.91,12.91,0,0,0-12.87,12.87v10.71A12.77,12.77,0,0,0,588.9,399h-5.22a18.2,18.2,0,0,0-5.44.77,13.93,13.93,0,0,0-4.36,2.18,10.22,10.22,0,0,0-2.9,3.31,8.63,8.63,0,0,0-1,4.16h0v13.17a1.1,1.1,0,0,0,0,.18,16.93,16.93,0,0,1-14.84,13.54,8.26,8.26,0,0,0,0,16.5H556a30.5,30.5,0,0,0,30.38-29.18v-1.12a2.61,2.61,0,1,0-5.21,0,26.14,26.14,0,0,1-26,24.82h0a2.75,2.75,0,0,1,0-5.49h0A21.37,21.37,0,0,0,575.41,423h0a1.93,1.93,0,0,0,0-.24,1.36,1.36,0,0,0,0-.2V409.38h0a3.92,3.92,0,0,1,1-2.7,7,7,0,0,1,2.93-1.84,12.43,12.43,0,0,1,4.25-.67h2.82a12.92,12.92,0,0,0,12.64,10.48h1.67a12.91,12.91,0,0,0,12.64-10.46h3.11a12.72,12.72,0,0,1,4.25.67,7.1,7.1,0,0,1,2.93,1.85,4,4,0,0,1,1,2.7h0v13.18c0,.05,0,.1,0,.15a2.64,2.64,0,0,0,0,.29v0a21.36,21.36,0,0,0,20.26,18.78h0a2.75,2.75,0,0,1,0,5.49h0a26.13,26.13,0,0,1-26-24.82,2.61,2.61,0,1,0-5.21,0v1.12a30.5,30.5,0,0,0,30.38,29.19h.88a8.26,8.26,0,0,0,0-16.5" transform="translate(-52.26 -320.7)"/><path class="cls-2" d="M608,343.1a2.61,2.61,0,1,1-2.75,2.61A2.68,2.68,0,0,1,608,343.1m0,10.4a7.81,7.81,0,1,0-8.22-7.79A8,8,0,0,0,608,353.5" transform="translate(-52.26 -320.7)"/><path class="cls-2" d="M534.3,399a2.61,2.61,0,1,0,2.75,2.61A2.68,2.68,0,0,0,534.3,399" transform="translate(-52.26 -320.7)"/><path class="cls-2" d="M665.78,347.11h.27a2.61,2.61,0,1,0,0-5.21h-.27a2.61,2.61,0,0,0,0,5.21" transform="translate(-52.26 -320.7)"/><path class="cls-2" d="M543.28,361.85a2.73,2.73,0,0,0,3.87,0l1.74-1.73,2,2a2.61,2.61,0,1,0,3.69-3.69l-2-2,1.76-1.75a2.74,2.74,0,1,0-3.88-3.88l-1.76,1.76-2-2a2.61,2.61,0,0,0-3.69,3.69l2,2L543.28,358a2.75,2.75,0,0,0,0,3.88" transform="translate(-52.26 -320.7)"/><path class="cls-2" d="M561.73,362.49a2.74,2.74,0,0,0,2.74-2.74V349.59a2.74,2.74,0,0,0-5.48,0v10.16a2.74,2.74,0,0,0,2.74,2.74" transform="translate(-52.26 -320.7)"/><path class="cls-2" d="M562.07,367.69h-.27a2.61,2.61,0,0,0,0,5.22h.27a2.61,2.61,0,0,0,0-5.22" transform="translate(-52.26 -320.7)"/><path class="cls-2" d="M564.86,336.46h-17a21.72,21.72,0,0,0-21.66,21.65v3.57a21.72,21.72,0,0,0,21.66,21.64h3a8.29,8.29,0,0,1,8.23,7.82,2.74,2.74,0,0,0,5.48,0v-.21a12.92,12.92,0,0,0-12.87-12.83h-3.58a17.34,17.34,0,0,1-16.45-17.26v-1.91a17.32,17.32,0,0,1,17.27-17.27h14.82A17.32,17.32,0,0,1,581,358.94v1.91a17.34,17.34,0,0,1-9.39,15.36h0a2.8,2.8,0,0,0,2.44,5l.11-.05,0,0,0,0a21.7,21.7,0,0,0,12.23-19.46v-3.57a21.72,21.72,0,0,0-21.66-21.65" transform="translate(-52.26 -320.7)"/><path class="cls-2" d="M640.28,359.87l-1.73,1.73a2.74,2.74,0,0,0,3.88,3.88l1.73-1.73,2,2a2.6,2.6,0,0,0,3.68-3.68l-2-2,1.75-1.75a2.74,2.74,0,1,0-3.88-3.88L644,356.18l-2-2a2.6,2.6,0,1,0-3.68,3.68Z" transform="translate(-52.26 -320.7)"/><path class="cls-2" d="M666,367.69a2.61,2.61,0,1,0,2.74,2.61,2.68,2.68,0,0,0-2.74-2.61" transform="translate(-52.26 -320.7)"/><path class="cls-2" d="M794.32,401.61H783.11a2.61,2.61,0,0,0,0,5.22h11.21a2.61,2.61,0,0,0,0-5.22" transform="translate(-52.26 -320.7)"/><path class="cls-2" d="M801,394.61l-7.93-7.93a2.6,2.6,0,1,0-3.68,3.68l7.92,7.93a2.61,2.61,0,1,0,3.69-3.68" transform="translate(-52.26 -320.7)"/><path class="cls-2" d="M804.32,381.59v10.14a2.74,2.74,0,0,0,5.48,0V381.59a2.74,2.74,0,0,0-5.48,0" transform="translate(-52.26 -320.7)"/><path class="cls-2" d="M823.53,381.17a8.23,8.23,0,0,1,16.45,0v9.6a8.23,8.23,0,0,1-16.45,0Zm-5.49-.55v10.7a12.91,12.91,0,0,0,12.87,12.88h1.68a12.92,12.92,0,0,0,12.88-12.88v-10.7a12.92,12.92,0,0,0-12.88-12.88h-1.68A12.91,12.91,0,0,0,818,380.62" transform="translate(-52.26 -320.7)"/><path class="cls-2" d="M830.84,428.06a7.07,7.07,0,0,0,2-5.75h0a7.08,7.08,0,0,0,7.06-7.05v-5.83h1.43a1.31,1.31,0,1,0,0-2.62h-5.61a1.31,1.31,0,0,0-1.3,1.31v6.36a2.65,2.65,0,0,1-2.63,2.63h-.22a2.65,2.65,0,0,1-2.63-2.63v-6.36h0a1.31,1.31,0,0,0-1.3-1.31h-5.62a1.31,1.31,0,0,0,0,2.62h1.44v5a7,7,0,0,0-4.31,2l-3.87,3.87-2.21,2.22A2.74,2.74,0,1,0,817,426.4l1.7-1.7,3.83-3.84a2.64,2.64,0,0,1,3.72,0l.15.15a2.63,2.63,0,0,1,0,3.72l-14.69,14.7a2.65,2.65,0,0,1-3.73,0l-.14-.15a2.6,2.6,0,0,1-.77-1.74h0V409.45h0a4,4,0,0,1,1-2.7,7,7,0,0,1,2.93-1.85,12.73,12.73,0,0,1,4.25-.66h.13a2.61,2.61,0,0,0,0-5.22h-.14a18.39,18.39,0,0,0-5.42.77l0,0A14.25,14.25,0,0,0,805.5,402a10.34,10.34,0,0,0-2.9,3.31,8.6,8.6,0,0,0-1,4.16h0v29.22h0a2.54,2.54,0,0,0,.11.67h0a6.93,6.93,0,0,0,1.74,2.86l1.64,1.65a7.09,7.09,0,0,0,10,0Z" transform="translate(-52.26 -320.7)"/><path class="cls-2" d="M861.91,409.41h0a8.5,8.5,0,0,0-1-4.16,10.19,10.19,0,0,0-2.89-3.31,14.13,14.13,0,0,0-4.32-2.17l0,0a18.39,18.39,0,0,0-5.42-.77h-.14a2.61,2.61,0,0,0,0,5.22h.14a12.62,12.62,0,0,1,4.24.66,7,7,0,0,1,2.92,1.85,4,4,0,0,1,1.06,2.7h0v39.16a2.63,2.63,0,0,1-2.62,2.55h-.21a2.63,2.63,0,0,1-2.63-2.63s0-.05,0-.08V422.59a2.75,2.75,0,0,0-5.49,0v38.94H818v-5.2H837.4a2.61,2.61,0,0,0,2.61-2.61h0a2.61,2.61,0,0,0-2.61-2.61H818v-2.45a2.75,2.75,0,0,0-5.49,0V464a2.76,2.76,0,0,0,.23,1.11,2.62,2.62,0,0,0,2.42,1.63h33.14a2.6,2.6,0,0,0,2.6-2.6h0v0s0-.06,0-.09v-7.86a6.9,6.9,0,0,0,1.58.19h2.33a7.08,7.08,0,0,0,7-7.06v-4.12h0V409.41Z" transform="translate(-52.26 -320.7)"/><path class="cls-2" d="M903.26,357.45H903a2.61,2.61,0,0,0,0,5.22h.27a2.61,2.61,0,0,0,0-5.22" transform="translate(-52.26 -320.7)"/><path class="cls-2" d="M881.61,386.55a2.6,2.6,0,0,0,0-3.68l-2-2,1.76-1.76a2.74,2.74,0,1,0-3.88-3.87L875.7,377l-2-2a2.6,2.6,0,1,0-3.68,3.68l2,2-1.73,1.73a2.74,2.74,0,0,0,3.88,3.87l1.73-1.73,2,2a2.6,2.6,0,0,0,3.68,0" transform="translate(-52.26 -320.7)"/><path class="cls-2" d="M881.06,399a2.61,2.61,0,1,0,2.74,2.61,2.67,2.67,0,0,0-2.74-2.61" transform="translate(-52.26 -320.7)"/><path class="cls-2" d="M809.69,336.49h2.85v2.45a2.74,2.74,0,1,0,5.48,0v-2.45h2.89a2.61,2.61,0,0,0,0-5.21H818V328.8a2.74,2.74,0,1,0-5.48,0v2.48h-2.85a2.61,2.61,0,1,0,0,5.21" transform="translate(-52.26 -320.7)"/><path class="cls-2" d="M765.86,373.16a2.61,2.61,0,1,0,2.74,2.61,2.67,2.67,0,0,0-2.74-2.61" transform="translate(-52.26 -320.7)"/><path class="cls-2" d="M804.18,362.67a2.61,2.61,0,1,0-2.75-2.61,2.68,2.68,0,0,0,2.75,2.61" transform="translate(-52.26 -320.7)"/><path class="cls-2" d="M848.21,357.35a2.61,2.61,0,1,0-2.74-2.61,2.68,2.68,0,0,0,2.74,2.61" transform="translate(-52.26 -320.7)"/></svg>