<?xml version="1.0" encoding="utf-8"?>
<!-- Generator: Adobe Illustrator 25.0.1, SVG Export Plug-In . SVG Version: 6.00 Build 0)  -->
<svg version="1.1" id="Layer_1" xmlns="http://www.w3.org/2000/svg" xmlns:xlink="http://www.w3.org/1999/xlink" x="0px" y="0px"
	 viewBox="0 0 864 169.6" style="enable-background:new 0 0 864 169.6;" xml:space="preserve">
<style type="text/css">
	.st0{fill:#877B85;}
	.st1{fill:#D6D1D3;}
</style>
<g>
	<g>
		<g>
			<path class="st0" d="M378.4,88.1l-57-57l0,0c-3.4-3.4-8.1-5.5-13.3-5.5h-5c-10.4,0-18.9,8.5-18.9,18.9v66.2c0,0.1,0,0.1,0,0.2
				v8.1c0,0,0,0,0,0c0,0,0,0,0,0V135c0,2.4,1.9,4.3,4.3,4.3c2.4,0,4.3-1.9,4.3-4.3v-12h8.5v12c0,2.4,1.9,4.3,4.3,4.3l0,0
				c2.4,0,4.3-1.9,4.3-4.3l0-12h8.6v12c0,2.4,1.9,4.3,4.3,4.3c2.4,0,4.3-1.9,4.3-4.3v-23.9c0-0.1,0-0.2,0-0.2c0-0.1,0-0.1,0-0.2
				V48.8l19.7,19.7l-10.2,10.2c-1.3,1.3-1.3,3.4,0,4.8l1,1c1.3,1.3,3.4,1.3,4.8,0l10.2-10.2l5.7,5.7l-9.1,9.1c0,0,0,0,0,0h0
				c0,0,0,0,0,0l-12.2,12.2c-0.2,0.2-0.4,0.5-0.6,0.7c-1.1,1.5-0.9,3.5,0.4,4.8l0.2,0.2c0,0,0,0,0,0c0,0,0,0,0,0l11.7,11.7
				c1.5,1.5,3.8,1.5,5.3,0l0.8-0.8c1.5-1.5,1.5-3.8,0-5.3l-8.9-8.9l6-6l8.5,8.5c1.7,1.7,4.4,1.7,6,0c1.7-1.7,1.7-4.4,0-6l-8.5-8.5
				l6-6l8.5,8.5c1.7,1.7,4.4,1.7,6,0C380.1,92.5,380.1,89.8,378.4,88.1z M305.1,33.7h1c6.8,0,12.3,5.6,12.3,12.3v52.6h-25.7V46.1
				C292.8,39.3,298.3,33.7,305.1,33.7z M305.6,114.9C305.6,114.9,305.6,114.9,305.6,114.9C305.6,114.9,305.6,114.9,305.6,114.9
				h-12.8v-4.7c0-0.1,0-0.2,0-0.2v-3.1h25.7v3.9c0,0.1,0,0.1,0,0.2c0,0.1,0,0.1,0,0.2v3.8H305.6z"/>
		</g>
		<path class="st1" d="M316.5,8.6c42,0,76.2,34.2,76.2,76.2s-34.2,76.2-76.2,76.2c-42,0-76.2-34.2-76.2-76.2S274.5,8.6,316.5,8.6
			 M316.5,0c-46.8,0-84.8,38-84.8,84.8s38,84.8,84.8,84.8s84.8-38,84.8-84.8S363.3,0,316.5,0L316.5,0z"/>
	</g>
	<g>
		<path class="st1" d="M84.8,8.6c42,0,76.2,34.2,76.2,76.2S126.8,161,84.8,161c-42,0-76.2-34.2-76.2-76.2S42.8,8.6,84.8,8.6 M84.8,0
			C38,0,0,38,0,84.8s38,84.8,84.8,84.8s84.8-38,84.8-84.8S131.6,0,84.8,0L84.8,0z"/>
		<g>
			<path class="st0" d="M56,68.4c2.4,0,4.3-1.9,4.3-4.3V48.2c0-2.4-1.9-4.3-4.3-4.3c-2.4,0-4.3,1.9-4.3,4.3v15.9
				C51.7,66.5,53.6,68.4,56,68.4z"/>
			<path class="st0" d="M124.9,43.8c-2.4,0-4.3,1.9-4.3,4.3v15.9c0,2.4,1.9,4.3,4.3,4.3c2.4,0,4.3-1.9,4.3-4.3V48.2
				C129.2,45.8,127.3,43.8,124.9,43.8z"/>
			<path class="st0" d="M107.7,68.4L107.7,68.4c2.3-0.1,4.2-2,4.2-4.3V48.2c0-2.4-1.9-4.3-4.2-4.3v0H86.9c-12.9,0-23.7-9-26.4-21.1
				c-0.5-2-2.2-3.4-4.3-3.4c-2.8,0-4.9,2.6-4.3,5.4c2.6,13.1,12.8,23.5,25.7,26.5v9.9c-12.9,3-23.1,13.4-25.7,26.5
				c-0.6,2.8,1.5,5.4,4.3,5.4c2.1,0,3.8-1.4,4.3-3.4C63.2,77.4,74,68.4,86.9,68.4H107.7z M103.3,52v8.2H86.1V52H103.3z"/>
			<path class="st0" d="M93,76.6h-5.1c-10.4,0-19,8.5-19,19V146c0,0,0,0.1,0,0.1c0,0,0,0.1,0,0.1c0,2,1.4,3.6,3.3,4
				c0.3,0.1,0.7,0.1,1,0.1c0.2,0,0.3,0,0.5,0h17c2.3,0,4.1-1.8,4.1-4.1s-1.8-4.1-4.1-4.1H77.5v-8.1h25.8V146c0,2.4,1.9,4.3,4.3,4.3
				h0c2.4,0,4.3-1.9,4.3-4.3V95.6C112,85.1,103.4,76.6,93,76.6z M89.9,84.8h1c6.8,0,12.4,5.6,12.4,12.4v3.9H77.5v-3.9
				C77.5,90.4,83.1,84.8,89.9,84.8z M77.5,125.7v-16.4h25.8v16.4H77.5z"/>
		</g>
	</g>
	<g>
		<path class="st1" d="M548.1,8.6c42,0,76.2,34.2,76.2,76.2S590.1,161,548.1,161s-76.2-34.2-76.2-76.2S506.1,8.6,548.1,8.6 M548.1,0
			c-46.8,0-84.8,38-84.8,84.8s38,84.8,84.8,84.8s84.8-38,84.8-84.8S594.9,0,548.1,0L548.1,0z"/>
	</g>
	<g>
		<path class="st1" d="M779.7,8.6c42,0,76.2,34.2,76.2,76.2S821.8,161,779.7,161s-76.2-34.2-76.2-76.2S737.7,8.6,779.7,8.6 M779.7,0
			C732.9,0,695,38,695,84.8s38,84.8,84.8,84.8c46.8,0,84.8-38,84.8-84.8S826.6,0,779.7,0L779.7,0z"/>
	</g>
	<g>
		<g>
			<path class="st0" d="M801.5,52.1h-60.7c-2.3,0-4.1,1.8-4.1,4.1v0c0,0,0,0.1,0,0.1c0,0,0,0.1,0,0.1v73.2c0,0,0,0.1,0,0.1
				c0,0,0,0.1,0,0.1c0,2.3,1.8,4.1,4.1,4.1h60.7c2.3,0,4.1-1.8,4.1-4.1c0,0,0-0.1,0-0.1c0,0,0-0.1,0-0.1V56.4c0,0,0-0.1,0-0.1
				c0,0,0-0.1,0-0.1v0C805.6,53.9,803.7,52.1,801.5,52.1z M745.3,60.3H797v65.4h-51.7V60.3z"/>
			<path class="st0" d="M822.8,39.8c0-2.3-1.8-4.1-4.1-4.1h-0.2l0,0H758c-2.3,0-4.1,1.8-4.1,4.1c0,2.3,1.8,4.1,4.1,4.1h56.2v69.3
				c0,2.4,1.9,4.3,4.3,4.3l0,0c2.4,0,4.3-1.9,4.3-4.3V40c0,0,0-0.1,0-0.1C822.8,39.9,822.8,39.9,822.8,39.8z"/>
		</g>
	</g>
	<g>
		<path class="st0" d="M573.9,64.7c-2.4,0-4.3,1.9-4.3,4.3v60.8h-43v-8.2h30.3c2.3,0,4.1-1.8,4.1-4.1v0c0-2.3-1.8-4.1-4.1-4.1h-30.3
			V69c0-2.4-1.9-4.3-4.3-4.3c-2.4,0-4.3,1.9-4.3,4.3v48.5v0v16.1c0,0,0,0.1,0,0.1c0,0,0,0.1,0,0.1c0,2.3,1.8,4.1,4.1,4.1h52.1
			c2.3,0,4.1-1.8,4.1-4.1c0,0,0-0.1,0-0.1c0,0,0-0.1,0-0.1V69C578.2,66.6,576.3,64.7,573.9,64.7z"/>
		<path class="st0" d="M595.5,48c0-2.4-0.5-4.6-1.6-6.5c-1.1-2-2.6-3.7-4.5-5.2c-2-1.5-4.2-2.6-6.9-3.4c-2.6-0.8-5.5-1.2-8.5-1.2
			h-8.8c-2.3,0-4.1,1.8-4.1,4.1l0,4.1c0,1.6-0.6,3-1.7,4.2c-1.1,1.2-2.6,2.2-4.6,2.9c-2,0.7-4.2,1-6.7,1c-2.5,0-4.7-0.3-6.7-1
			c-2-0.7-3.5-1.7-4.6-2.9c-1.1-1.2-1.6-2.6-1.7-4.2l0-4.1c0-2.3-1.8-4.1-4.1-4.1h-8.8c-3.1,0-5.9,0.4-8.5,1.2
			c-2.6,0.8-4.9,2-6.9,3.4c-2,1.5-3.5,3.2-4.5,5.2c-1.1,2-1.6,4.2-1.6,6.5h0l0,16.4l0,4.3c0,0,0,0,0,0c0,2.1,1.9,3.9,4.3,3.9
			c2.4,0,4.3-1.7,4.3-3.9l0-3.5l0-17.3h0c0-1.6,0.6-3,1.7-4.2c1.1-1.2,2.6-2.2,4.6-2.9c2-0.7,4.2-1,6.7-1v0h5.7v0h-1.4
			c0,2.4,0.5,4.6,1.6,6.5c1.1,2,2.6,3.7,4.5,5.2c2,1.5,4.2,2.6,6.9,3.4c1.3,0.4,2.7,0.7,4.2,0.9v12.3c0,2.4,1.9,4.3,4.3,4.3
			c2.4,0,4.3-1.9,4.3-4.3l0-12.3c1.5-0.2,2.9-0.5,4.3-0.9c2.6-0.8,4.9-2,6.9-3.4c2-1.5,3.5-3.2,4.5-5.2c1.1-2,1.6-4.2,1.6-6.5h-0.7
			l0,0h5v0c2.5,0,4.7,0.3,6.7,1c2,0.7,3.5,1.7,4.6,2.9c1.1,1.2,1.6,2.6,1.7,4.2h0l0,17.3l0,3.5c0,2.1,1.9,3.9,4.3,3.9
			c2.4,0,4.3-1.7,4.3-3.9c0,0,0,0,0,0l0-4.3L595.5,48L595.5,48z"/>
	</g>
</g>
</svg>
