<?xml version="1.0" encoding="utf-8"?>
<!-- Generator: Adobe Illustrator 25.0.0, SVG Export Plug-In . SVG Version: 6.00 Build 0)  -->
<svg version="1.1" id="Layer_1" xmlns="http://www.w3.org/2000/svg" xmlns:xlink="http://www.w3.org/1999/xlink" x="0px" y="0px"
	 viewBox="0 0 864 169.6" style="enable-background:new 0 0 864 169.6;" xml:space="preserve">
<style type="text/css">
	.st0{fill:#D6D1D3;}
	.st1{fill:#877B85;}
</style>
<g>
	<g>
		<path class="st0" d="M316.5,8.6c42,0,76.2,34.2,76.2,76.2S358.5,161,316.5,161s-76.2-34.2-76.2-76.2S274.5,8.6,316.5,8.6 M316.5,0
			c-46.8,0-84.8,38-84.8,84.8s38,84.8,84.8,84.8s84.8-38,84.8-84.8S363.3,0,316.5,0L316.5,0z"/>
		<g>
			<path class="st1" d="M324.6,57.5C324.6,57.5,324.6,57.5,324.6,57.5C324.6,57.5,324.6,57.5,324.6,57.5l9.7,9.7
				c1.3,1.3,3.3,1.3,4.6,0c0,0,0-0.1,0.1-0.1c0,0,0.1,0,0.1-0.1l8.9-8.9c1.3-1.3,1.3-3.5,0-4.8c-1.3-1.3-3.5-1.3-4.8,0l-6.7,6.7
				l-4.8-4.8l6.7-6.7c1.3-1.3,1.3-3.5,0-4.8c-1.3-1.3-3.5-1.3-4.8,0l-6.7,6.7l-4.8-4.8l6.7-6.7c1.3-1.3,1.3-3.5,0-4.8
				c-1.3-1.3-3.5-1.3-4.8,0l-33.1,33.1l0,0l-1.9,1.9c-4,4-4,10.4,0,14.4c0.1,0.1,0.2,0.2,0.3,0.3l0,0l11.7,11.7l-6.8,6.8
				c0,0,0,0,0,0c0,0,0,0,0,0l-9,9c-1.3,1.3-1.3,3.5,0,4.8c1.3,1.3,3.5,1.3,4.8,0l6.7-6.7l4.8,4.8l-6.7,6.7c-1.3,1.3-1.3,3.5,0,4.8
				c1.3,1.3,3.5,1.3,4.8,0l6.7-6.7l4.8,4.8l-6.7,6.7c-1.3,1.3-1.3,3.5,0,4.8c1.3,1.3,3.5,1.3,4.8,0l33.1-33.1l0,0l0.4-0.4
				c4-4,4-10.4,0-14.4l0,0l-19.2-19.2c0,0,0,0,0,0c-4-4-10.4-4-14.4,0l-6.6,6.6l0,0l-4,4c-1.3,1.3-3.5,1.3-4.8,0
				c-1.3-1.3-1.3-3.5,0-4.8l7.7-7.7l0,0l16.2-16.2L324.6,57.5z M308.4,112.1C308.4,112.1,308.4,112.1,308.4,112.1
				C308.4,112.1,308.4,112.1,308.4,112.1l-7.2-7.2l19.2-19.2c0,0,0.1-0.1,0.1-0.1l2.9-2.9c0.9-0.9,1.6-2,2.1-3.2L338,92.1l0,0
				c1.3,1.3,1.3,3.5,0,4.8l-7.7,7.7l0,0l-5.6,5.6l-7.3-7.3c-1.3-1.3-3.3-1.3-4.6,0v0c-1.3,1.3-1.3,3.3,0,4.6l7.3,7.3l-4.6,4.6
				L308.4,112.1z M318.8,72.9L318.8,72.9L318.8,72.9c1.3,1.3,1.3,3.5,0,4.8l-11.1,11.1l0,0l-2.1,2.1l-5.3-5.3
				c1.1-0.5,2.2-1.2,3.1-2.1l8.1-8.1l0,0l2.5-2.5C315.3,71.6,317.4,71.6,318.8,72.9z"/>
		</g>
	</g>
	<g>
		<path class="st0" d="M84.8,8.6c42,0,76.2,34.2,76.2,76.2S126.8,161,84.8,161S8.6,126.8,8.6,84.8S42.8,8.6,84.8,8.6 M84.8,0
			C38,0,0,38,0,84.8s38,84.8,84.8,84.8s84.8-38,84.8-84.8S131.6,0,84.8,0L84.8,0z"/>
		<g>
			<g>
				<path class="st1" d="M57.6,71.9c1.9,0,3.4-1.5,3.4-3.4V55.9c0-1.9-1.5-3.4-3.4-3.4c-1.9,0-3.4,1.5-3.4,3.4v12.6
					C54.2,70.3,55.7,71.9,57.6,71.9z"/>
			</g>
			<g>
				<path class="st1" d="M112,52.5c-1.9,0-3.4,1.5-3.4,3.4v12.6c0,1.9,1.5,3.4,3.4,3.4c1.9,0,3.4-1.5,3.4-3.4V55.9
					C115.4,54,113.9,52.5,112,52.5z"/>
			</g>
			<g>
				<path class="st1" d="M98.4,71.9L98.4,71.9c1.8,0,3.3-1.5,3.3-3.4V55.9c0-1.9-1.5-3.4-3.3-3.4v0H82c-10.1,0-18.7-7.1-20.8-16.6
					c-0.4-1.6-1.8-2.7-3.4-2.7c-2.2,0-3.9,2-3.4,4.2c2.1,10.3,10.1,18.5,20.3,20.9v7.8C64.4,68.5,56.4,76.7,54.3,87
					c-0.4,2.2,1.2,4.2,3.4,4.2c1.6,0,3-1.1,3.4-2.7C63.3,79,71.9,71.9,82,71.9H98.4z M95,59v6.4H81.4V59H95z"/>
			</g>
			<g>
				<path class="st1" d="M86.8,78.3h-4c-8.2,0-15,6.7-15,15V133c0,0,0,0,0,0.1c0,0,0,0,0,0.1c0,1.6,1.1,2.9,2.6,3.2
					c0.3,0.1,0.5,0.1,0.8,0.1c0.1,0,0.3,0,0.4,0h13.4c1.8,0,3.2-1.4,3.2-3.2c0-1.8-1.4-3.2-3.2-3.2H74.6v-6.4H95v9.5
					c0,1.9,1.5,3.4,3.4,3.4h0c1.9,0,3.4-1.5,3.4-3.4V93.3C101.8,85.1,95,78.3,86.8,78.3z M84.4,84.8h0.8c5.4,0,9.8,4.4,9.8,9.8v3.1
					H74.6v-3.1C74.6,89.2,79,84.8,84.4,84.8z M74.6,117v-12.9H95V117H74.6z"/>
			</g>
		</g>
	</g>
	<g>
		<path class="st0" d="M548.1,8.6c42,0,76.2,34.2,76.2,76.2S590.1,161,548.1,161s-76.2-34.2-76.2-76.2S506.1,8.6,548.1,8.6 M548.1,0
			c-46.8,0-84.8,38-84.8,84.8s38,84.8,84.8,84.8s84.8-38,84.8-84.8S594.9,0,548.1,0L548.1,0z"/>
	</g>
	<g>
		<path class="st0" d="M779.7,8.6c42,0,76.2,34.2,76.2,76.2S821.8,161,779.7,161s-76.2-34.2-76.2-76.2S737.7,8.6,779.7,8.6 M779.7,0
			C732.9,0,695,38,695,84.8s38,84.8,84.8,84.8s84.8-38,84.8-84.8S826.6,0,779.7,0L779.7,0z"/>
	</g>
	<g>
		<g>
			<path class="st1" d="M796.8,59H749c-1.8,0-3.2,1.4-3.2,3.2v0c0,0,0,0.1,0,0.1c0,0,0,0.1,0,0.1v57.7c0,0,0,0.1,0,0.1
				c0,0,0,0.1,0,0.1c0,1.8,1.4,3.2,3.2,3.2h47.9c1.8,0,3.2-1.4,3.2-3.2c0,0,0-0.1,0-0.1c0,0,0,0,0-0.1V62.4c0,0,0,0,0-0.1
				c0,0,0-0.1,0-0.1v0C800.1,60.4,798.6,59,796.8,59z M752.5,65.4h40.7V117h-40.7V65.4z"/>
		</g>
		<g>
			<path class="st1" d="M813.6,49.3c0-1.8-1.4-3.2-3.2-3.2h-0.2l0,0h-47.7c-1.8,0-3.2,1.4-3.2,3.2c0,1.8,1.4,3.2,3.2,3.2h44.3v54.7
				c0,1.9,1.5,3.4,3.4,3.4l0,0c1.9,0,3.4-1.5,3.4-3.4V49.5C813.6,49.5,813.6,49.4,813.6,49.3C813.6,49.4,813.6,49.4,813.6,49.3z"/>
		</g>
	</g>
	<g>
		<g>
			<path class="st1" d="M568.5,68.9c-1.9,0-3.4,1.5-3.4,3.4v47.9h-33.9v-6.4h23.9c1.8,0,3.2-1.4,3.2-3.2v0c0-1.8-1.4-3.2-3.2-3.2
				h-23.9v-35c0-1.9-1.5-3.4-3.4-3.4c-1.9,0-3.4,1.5-3.4,3.4v38.3v0v12.7c0,0,0,0.1,0,0.1c0,0,0,0.1,0,0.1c0,1.8,1.4,3.2,3.2,3.2
				h41.1c1.8,0,3.2-1.4,3.2-3.2c0,0,0-0.1,0-0.1c0,0,0-0.1,0-0.1v-51C571.9,70.5,570.4,68.9,568.5,68.9z"/>
		</g>
		<g>
			<path class="st1" d="M585.5,55.8c0-1.9-0.4-3.6-1.3-5.2c-0.8-1.6-2-2.9-3.6-4.1c-1.5-1.2-3.3-2.1-5.4-2.7c-2.1-0.6-4.3-1-6.7-1
				h-7c-1.8,0-3.2,1.4-3.2,3.2c0,0,0,0,0,0l0,0c-0.3,5.4-4.8,9.7-10.2,9.7c-5.4,0-9.9-4.3-10.2-9.7l0,0c0,0,0,0,0,0
				c0-1.8-1.4-3.2-3.2-3.2h-7v0c-2.4,0-4.6,0.3-6.7,1c-2.1,0.6-3.9,1.5-5.4,2.7c-1.5,1.2-2.7,2.5-3.6,4.1c-0.8,1.6-1.3,3.3-1.3,5.2
				h0l0,13l0,3.4c0,0,0,0,0,0c0,1.7,1.5,3.1,3.4,3.1c1.9,0,3.4-1.4,3.4-3.1l0-2.8l0-13.6h0c0-1.3,0.4-2.4,1.3-3.3
				c0.9-1,2.1-1.7,3.6-2.3c1.5-0.6,3.3-0.8,5.3-0.8h3.7c1.4,7.3,7.9,12.9,15.6,12.9h2.1c7.7,0,14.2-5.6,15.6-12.9h3.8v0
				c2,0,3.7,0.3,5.3,0.8c1.5,0.6,2.7,1.3,3.6,2.3c0.9,1,1.3,2.1,1.3,3.3h0l0,13.6l0,2.8c0,1.7,1.5,3.1,3.4,3.1
				c1.9,0,3.4-1.4,3.4-3.1c0,0,0,0,0,0l0-3.4L585.5,55.8L585.5,55.8z"/>
		</g>
	</g>
</g>
</svg>
