<?xml version="1.0" encoding="utf-8"?>
<!-- Generator: Adobe Illustrator 25.0.0, SVG Export Plug-In . SVG Version: 6.00 Build 0)  -->
<svg version="1.1" id="Layer_1" xmlns="http://www.w3.org/2000/svg" xmlns:xlink="http://www.w3.org/1999/xlink" x="0px" y="0px"
	 viewBox="0 0 343.8 229.3" style="enable-background:new 0 0 343.8 229.3;" xml:space="preserve">
<style type="text/css">
	.st0{fill:#877B85;}
	.st1{fill:#D6D1D3;}
</style>
<g>
	<path class="st0" d="M798.2,213c-2,0-3.7,1.6-3.7,3.7v45H758v-6.9h25.8c1.9,0,3.5-1.6,3.5-3.5l0,0c0-1.9-1.6-3.5-3.5-3.5H758v-31.1
		c0-2-1.6-3.7-3.7-3.7l0,0c-2,0-3.7,1.6-3.7,3.7v34.6l0,0V265v0.1v0.1c0,1.9,1.6,3.5,3.5,3.5h0.2l0,0h44.1c1.9,0,3.5-1.6,3.5-3.5
		v-0.1V265v-48.3C801.9,214.6,800.3,213,798.2,213z"/>
	<path class="st0" d="M815.1,193.5c-0.9-1.7-2.2-3.2-3.9-4.4c-1.7-1.3-3.6-2.2-5.8-2.9c-2.2-0.7-4.6-1-7.2-1h-7
		c2.1-2.9,3.4-6.4,3.4-10.2v-14.3c0-9.4-7.7-17.2-17.2-17.2h-2.2c-9.4,0-17.2,7.7-17.2,17.2V175c0,3.8,1.3,7.4,3.4,10.2h-7.1
		c-2.6,0-5,0.3-7.2,1c-2.2,0.7-4.2,1.7-5.8,2.9c-1.7,1.3-2.9,2.7-3.9,4.4c-0.9,1.7-1.4,3.5-1.4,5.5l0,0v4.3v47.5v0.4
		c0,1.8,1.6,3.3,3.7,3.3c2,0,3.6-1.5,3.7-3.3v-47.3v-5l0,0c0-1.4,0.5-2.6,1.4-3.6c0.9-1,2.2-1.9,3.9-2.5c1.7-0.6,3.5-0.9,5.7-0.9
		l0,0h3.8c1.5,7.9,8.5,13.9,16.8,13.9h2.2c8.3,0,15.3-6,16.9-13.9h4.1c2.1,0,4,0.3,5.7,0.9c1.7,0.6,3,1.4,3.9,2.5
		c0.9,1,1.4,2.2,1.4,3.6l0,0v5v47.3c0,1.8,1.6,3.3,3.7,3.3c2,0,3.7-1.5,3.7-3.3v-0.4v-47.5V199l0,0
		C816.5,197.1,816,195.2,815.1,193.5z M765.3,161.4c0-6,4.9-11,11-11c6,0,11,4.9,11,11v12.8c0,6-4.9,11-11,11c-6,0-11-4.9-11-11
		V161.4z M776.1,199.1c-5.7,0-10.4-4.4-10.9-9.9c0-0.1,0-0.2,0-0.3c2.8,2,6.2,3.2,9.9,3.2h2.2c3.6,0,6.9-1.1,9.7-3
		C786.6,194.7,781.8,199.1,776.1,199.1z"/>
</g>
<g>
	<path class="st1" d="M-320.5,210.1c42,0,76.2,34.2,76.2,76.2s-34.2,76.2-76.2,76.2s-76.2-34.2-76.2-76.2S-362.5,210.1-320.5,210.1
		 M-320.5,201.5c-46.8,0-84.8,38-84.8,84.8s38,84.8,84.8,84.8s84.8-38,84.8-84.8S-273.7,201.5-320.5,201.5L-320.5,201.5z"/>
	<g>
		<g>
			<path class="st0" d="M-347.7,273.4c1.9,0,3.4-1.5,3.4-3.4v-12.6c0-1.9-1.5-3.4-3.4-3.4s-3.4,1.5-3.4,3.4V270
				C-351.1,271.8-349.6,273.4-347.7,273.4z"/>
		</g>
		<g>
			<path class="st0" d="M-293.3,254c-1.9,0-3.4,1.5-3.4,3.4V270c0,1.9,1.5,3.4,3.4,3.4s3.4-1.5,3.4-3.4v-12.6
				C-289.9,255.5-291.4,254-293.3,254z"/>
		</g>
		<g>
			<path class="st0" d="M-306.9,273.4L-306.9,273.4c1.8,0,3.3-1.5,3.3-3.4v-12.6c0-1.9-1.5-3.4-3.3-3.4l0,0h-16.4
				c-10.1,0-18.7-7.1-20.8-16.6c-0.4-1.6-1.8-2.7-3.4-2.7c-2.2,0-3.9,2-3.4,4.2c2.1,10.3,10.1,18.5,20.3,20.9v7.8
				c-10.3,2.4-18.3,10.6-20.4,20.9c-0.4,2.2,1.2,4.2,3.4,4.2c1.6,0,3-1.1,3.4-2.7c2.2-9.5,10.8-16.6,20.9-16.6H-306.9L-306.9,273.4z
				 M-310.3,260.5v6.4h-13.6v-6.4H-310.3z"/>
		</g>
		<g>
			<path class="st0" d="M-318.5,279.8h-4c-8.2,0-15,6.7-15,15v39.7c0,0,0,0,0,0.1c0,0,0,0,0,0.1c0,1.6,1.1,2.9,2.6,3.2
				c0.3,0.1,0.5,0.1,0.8,0.1c0.1,0,0.3,0,0.4,0h13.4c1.8,0,3.2-1.4,3.2-3.2s-1.4-3.2-3.2-3.2h-10.4v-6.4h20.4v9.5
				c0,1.9,1.5,3.4,3.4,3.4l0,0c1.9,0,3.4-1.5,3.4-3.4v-39.9C-303.5,286.6-310.3,279.8-318.5,279.8z M-320.9,286.3h0.8
				c5.4,0,9.8,4.4,9.8,9.8v3.1h-20.4v-3.1C-330.7,290.7-326.3,286.3-320.9,286.3z M-330.7,318.5v-12.9h20.4v12.9H-330.7z"/>
		</g>
	</g>
</g>
<g>
	<path class="st0" d="M725.1,226.9h-32.9V220h18.3c1.9,0,3.5-1.6,3.5-3.5l0,0c0-1.9-1.6-3.5-3.5-3.5h-18.3v-31.1
		c0-2-1.6-3.7-3.7-3.7s-3.7,1.6-3.7,3.7v34.6l0,0v13.7v0.1v0.1c0,1.9,1.6,3.5,3.5,3.5h36.8c1.9,0,3.5-1.6,3.5-3.5
		S727.1,226.9,725.1,226.9z"/>
	<path class="st0" d="M750.6,164.4c0-2-0.5-3.9-1.4-5.5c-0.9-1.7-2.2-3.2-3.9-4.4c-1.7-1.3-3.6-2.2-5.8-2.9c-2.2-0.7-4.6-1-7.2-1h-7
		c2.1-2.9,3.4-6.4,3.4-10.2V126c0-9.5-7.7-17.2-17.1-17.2h-2.2c-9.5,0-17.2,7.7-17.2,17.2v14.3c0,3.8,1.3,7.4,3.4,10.2h-7.1
		c-2.6,0-5,0.3-7.2,1c-2.2,0.7-4.2,1.7-5.8,2.9c-1.7,1.3-2.9,2.7-3.9,4.4c-0.9,1.7-1.4,3.5-1.4,5.6l0,0v4.3v47.5v0.4
		c0,1.8,1.6,3.3,3.7,3.3c2,0,3.6-1.5,3.7-3.3v-47.3v-5l0,0c0-1.4,0.5-2.6,1.4-3.6s2.2-1.9,3.9-2.5c1.7-0.6,3.5-0.9,5.7-0.9l0,0h3.8
		c1.5,7.9,8.5,13.9,16.8,13.9h2.2c8.3,0,15.3-6,16.9-13.9h4.1c2.1,0,4,0.3,5.7,0.9c1.7,0.6,3,1.4,3.9,2.5c0.9,1,1.4,2.2,1.4,3.6l0,0
		v5v5.6c0,1.8,1.6,3.3,3.7,3.3c2,0,3.7-1.5,3.7-3.3v-0.4v-5.8L750.6,164.4L750.6,164.4z M710.3,164.4c-5.7,0-10.4-4.4-10.9-9.9
		c0-0.1,0-0.2,0-0.3c2.8,2,6.2,3.2,9.9,3.2h2.2c3.6,0,6.9-1.1,9.7-3C720.8,160,716,164.4,710.3,164.4z M721.4,139.5
		c0,6-4.9,11-11,11c-6,0-11-4.9-11-11v-12.8c0-6,4.9-11,11-11c6,0,11,4.9,11,11V139.5z"/>
</g>
<g>
	<path class="st0" d="M864.1,178.3c-2,0-3.7,1.6-3.7,3.7v45h-33c-1.9,0-3.5,1.6-3.5,3.5s1.6,3.5,3.5,3.5h36.9c1.9,0,3.5-1.6,3.5-3.5
		v-0.1v-0.1V182C867.7,179.9,866.1,178.3,864.1,178.3z"/>
	<path class="st0" d="M827.4,220h22.3c1.9,0,3.5-1.6,3.5-3.5l0,0c0-1.9-1.6-3.5-3.5-3.5h-22.3c-1.9,0-3.5,1.6-3.5,3.5l0,0
		C823.9,218.4,825.5,220,827.4,220z"/>
	<path class="st0" d="M882.3,164.4c0-2-0.5-3.9-1.4-5.5c-0.9-1.7-2.2-3.2-3.9-4.4c-1.7-1.3-3.6-2.2-5.8-2.9c-2.2-0.7-4.6-1-7.2-1h-7
		c2.1-2.9,3.4-6.4,3.4-10.2V126c0-9.5-7.7-17.2-17.2-17.2H841c-9.4,0-17.2,7.7-17.2,17.2v14.3c0,3.8,1.3,7.4,3.4,10.2h-7.1
		c-2.6,0-5,0.3-7.2,1c-2.2,0.7-4.2,1.7-5.8,2.9c-1.7,1.3-2.9,2.7-3.9,4.4c-0.9,1.7-1.4,3.5-1.4,5.5l0,0v4.3v5.8v0.4
		c0,1.8,1.6,3.3,3.7,3.3c2,0,3.6-1.5,3.7-3.3v-5.6v-5l0,0c0-1.4,0.5-2.6,1.4-3.6c0.9-1,2.2-1.9,3.9-2.5c1.7-0.6,3.5-0.9,5.7-0.9l0,0
		h3.8c1.5,7.9,8.5,13.9,16.8,13.9h2.2c8.3,0,15.3-6,16.9-13.9h4.1c2.1,0,4,0.3,5.7,0.9c1.7,0.6,3,1.4,3.9,2.5c0.9,1,1.4,2.2,1.4,3.6
		l0,0v5v47.3c0,1.8,1.6,3.3,3.7,3.3c2,0,3.7-1.5,3.7-3.3v-0.4v-47.5L882.3,164.4L882.3,164.4z M842,164.4c-5.7,0-10.4-4.4-10.9-9.9
		c0-0.1,0-0.2,0-0.3c2.8,2,6.2,3.2,9.9,3.2h2.2c3.6,0,6.9-1.1,9.7-3C852.4,160,847.7,164.4,842,164.4z M853.1,139.5
		c0,6-4.9,11-11,11c-6,0-11-4.9-11-11v-12.8c0-6,4.9-11,11-11c6,0,11,4.9,11,11V139.5z"/>
</g>
<g>
	<path class="st0" d="M193.9,173.7c-2,0-3.7,1.6-3.7,3.7v45h-36.5v-6.9h25.8c1.9,0,3.5-1.6,3.5-3.5v0c0-1.9-1.6-3.5-3.5-3.5h-25.8
		v-31.1c0-2-1.6-3.7-3.7-3.7c-2,0-3.7,1.6-3.7,3.7v34.6v0v13.7c0,0,0,0.1,0,0.1c0,0,0,0.1,0,0.1c0,1.9,1.6,3.5,3.5,3.5h44.2
		c1.9,0,3.5-1.6,3.5-3.5c0,0,0-0.1,0-0.1c0,0,0-0.1,0-0.1v-48.3C197.5,175.3,195.9,173.7,193.9,173.7z"/>
	<path class="st0" d="M212.1,159.8c0-2-0.5-3.9-1.4-5.5c-0.9-1.7-2.2-3.2-3.9-4.4c-1.7-1.3-3.6-2.2-5.8-2.9c-2.2-0.7-4.6-1-7.2-1
		l-7,0c2.1-2.9,3.4-6.4,3.4-10.2v-14.3c0-9.4-7.7-17.2-17.2-17.2h-2.2c-9.4,0-17.2,7.7-17.2,17.2v14.3c0,3.8,1.3,7.4,3.4,10.2
		l-7.1,0c-2.6,0-5,0.3-7.2,1c-2.2,0.7-4.2,1.7-5.8,2.9c-1.7,1.3-2.9,2.7-3.9,4.4c-0.9,1.7-1.4,3.5-1.4,5.5h0l0,4.3l0,47.5
		c0,0,0,0.4,0,0.4c0,1.8,1.6,3.3,3.7,3.3c2,0,3.6-1.5,3.7-3.3l0-47.3l0-5h0c0-1.4,0.5-2.6,1.4-3.6c0.9-1,2.2-1.9,3.9-2.5
		c1.7-0.6,3.5-0.9,5.7-0.9v0l3.8,0c1.5,7.9,8.5,13.9,16.8,13.9h2.2c8.3,0,15.3-6,16.9-13.9l4.1,0c2.1,0,4,0.3,5.7,0.9
		c1.7,0.6,3,1.4,3.9,2.5c0.9,1,1.4,2.2,1.4,3.6h0l0,5l0,47.3c0,1.8,1.6,3.3,3.7,3.3c2,0,3.7-1.5,3.7-3.3c0,0,0-0.4,0-0.4l0-47.5
		L212.1,159.8L212.1,159.8z M160.9,122.1c0-6,4.9-11,11-11c6,0,11,4.9,11,11v12.8c0,6-4.9,11-11,11c-6,0-11-4.9-11-11V122.1z
		 M171.8,159.8c-5.7,0-10.4-4.4-10.9-9.9c0-0.1,0-0.2,0-0.3c2.8,2,6.2,3.2,9.9,3.2h2.2c3.6,0,6.9-1.1,9.7-3
		C182.2,155.4,177.5,159.8,171.8,159.8z"/>
</g>
<path class="st1" d="M212.1,90.3c0-2-0.5-3.9-1.4-5.5c-0.9-1.7-2.2-3.2-3.9-4.4c-1.7-1.3-3.6-2.2-5.8-2.9c-2.2-0.7-4.6-1-7.2-1l-7,0
	c2.1-2.9,3.4-6.4,3.4-10.2V51.9c0-9.4-7.7-17.2-17.2-17.2h-2.2c-9.4,0-17.2,7.7-17.2,17.2v14.3c0,3.8,1.3,7.4,3.4,10.2l-7.1,0
	c-2.6,0-5,0.3-7.2,1c-2.2,0.7-4.2,1.7-5.8,2.9c-1.7,1.3-2.9,2.7-3.9,4.4c-0.9,1.7-1.4,3.5-1.4,5.5h0l0,4.3l0,5.8c0,0,0,0.4,0,0.4
	c0,1.8,1.6,3.3,3.7,3.3c2,0,3.6-1.5,3.7-3.3l0-5.6l0-5h0c0-1.4,0.5-2.6,1.4-3.6c0.9-1,2.2-1.9,3.9-2.5c1.7-0.6,3.5-0.9,5.7-0.9v0
	l3.8,0c1.5,7.9,8.5,13.9,16.8,13.9h2.2c8.3,0,15.3-6,16.9-13.9l4.1,0c2.1,0,4,0.3,5.7,0.9c1.7,0.6,3,1.4,3.9,2.5
	c0.9,1,1.4,2.2,1.4,3.6h0l0,5l0,5.6c0,1.8,1.6,3.3,3.7,3.3c2,0,3.7-1.5,3.7-3.3c0,0,0-0.4,0-0.4l0-5.8L212.1,90.3L212.1,90.3z
	 M160.9,52.6c0-6,4.9-11,11-11c6,0,11,4.9,11,11v12.8c0,6-4.9,11-11,11c-6,0-11-4.9-11-11V52.6z M171.8,90.3
	c-5.7,0-10.4-4.4-10.9-9.9c0-0.1,0-0.2,0-0.3c2.8,2,6.2,3.2,9.9,3.2h2.2c3.6,0,6.9-1.1,9.7-3C182.2,85.9,177.5,90.3,171.8,90.3z"/>
<path class="st1" d="M146.3,55.6c0-2-0.5-3.9-1.4-5.5c-0.9-1.7-2.2-3.2-3.9-4.4c-1.7-1.3-3.6-2.2-5.8-2.9c-2.2-0.7-4.6-1-7.2-1l-7,0
	c2.1-2.9,3.4-6.4,3.4-10.2V17.2c0-9.4-7.7-17.2-17.2-17.2H105c-9.4,0-17.2,7.7-17.2,17.2v14.3c0,3.8,1.3,7.4,3.4,10.2l-7.1,0
	c-2.6,0-5,0.3-7.2,1c-2.2,0.7-4.2,1.7-5.8,2.9c-1.7,1.3-2.9,2.7-3.9,4.4c-0.9,1.7-1.4,3.5-1.4,5.5h0l0,4.3l0,5.8c0,0,0,0.4,0,0.4
	c0,1.8,1.6,3.3,3.7,3.3c2,0,3.6-1.5,3.7-3.3l0-5.6l0-5h0c0-1.4,0.5-2.6,1.4-3.6c0.9-1,2.2-1.9,3.9-2.5c1.7-0.6,3.5-0.9,5.7-0.9v0
	l3.8,0c1.5,7.9,8.5,13.9,16.8,13.9h2.2c8.3,0,15.3-6,16.9-13.9l4.1,0c2.1,0,4,0.3,5.7,0.9c1.7,0.6,3,1.4,3.9,2.5
	c0.9,1,1.4,2.2,1.4,3.6h0l0,5l0,5.6c0,1.8,1.6,3.3,3.7,3.3c2,0,3.7-1.5,3.7-3.3c0,0,0-0.4,0-0.4l0-5.8L146.3,55.6L146.3,55.6z
	 M95.1,17.9c0-6,4.9-11,11-11c6,0,11,4.9,11,11v12.8c0,6-4.9,11-11,11c-6,0-11-4.9-11-11V17.9z M105.9,55.6
	c-5.7,0-10.4-4.4-10.9-9.9c0-0.1,0-0.2,0-0.3c2.8,2,6.2,3.2,9.9,3.2h2.2c3.6,0,6.9-1.1,9.7-3C116.4,51.2,111.7,55.6,105.9,55.6z"/>
<path class="st1" d="M277.8,55.6c0-2-0.5-3.9-1.4-5.5c-0.9-1.7-2.2-3.2-3.9-4.4c-1.7-1.3-3.6-2.2-5.8-2.9c-2.2-0.7-4.6-1-7.2-1l-7,0
	c2.1-2.9,3.4-6.4,3.4-10.2V17.2c0-9.4-7.7-17.2-17.2-17.2h-2.2c-9.4,0-17.2,7.7-17.2,17.2v14.3c0,3.8,1.3,7.4,3.4,10.2l-7.1,0
	c-2.6,0-5,0.3-7.2,1c-2.2,0.7-4.2,1.7-5.8,2.9c-1.7,1.3-2.9,2.7-3.9,4.4c-0.9,1.7-1.4,3.5-1.4,5.5h0l0,4.3l0,5.8c0,0,0,0.4,0,0.4
	c0,1.8,1.6,3.3,3.7,3.3c2,0,3.6-1.5,3.7-3.3l0-5.6l0-5h0c0-1.4,0.5-2.6,1.4-3.6c0.9-1,2.2-1.9,3.9-2.5c1.7-0.6,3.5-0.9,5.7-0.9v0
	l3.8,0c1.5,7.9,8.5,13.9,16.8,13.9h2.2c8.3,0,15.3-6,16.9-13.9l4.1,0c2.1,0,4,0.3,5.7,0.9c1.7,0.6,3,1.4,3.9,2.5
	c0.9,1,1.4,2.2,1.4,3.6h0l0,5l0,5.6c0,1.8,1.6,3.3,3.7,3.3c2,0,3.7-1.5,3.7-3.3c0,0,0-0.4,0-0.4l0-5.8L277.8,55.6L277.8,55.6z
	 M226.6,17.9c0-6,4.9-11,11-11c6,0,11,4.9,11,11v12.8c0,6-4.9,11-11,11c-6,0-11-4.9-11-11V17.9z M237.5,55.6
	c-5.7,0-10.4-4.4-10.9-9.9c0-0.1,0-0.2,0-0.3c2.8,2,6.2,3.2,9.9,3.2h2.2c3.6,0,6.9-1.1,9.7-3C247.9,51.2,243.2,55.6,237.5,55.6z"/>
<g>
	<path class="st0" d="M259.7,139c-2,0-3.7,1.6-3.7,3.7v45h-33c-1.9,0-3.5,1.6-3.5,3.5s1.6,3.5,3.5,3.5h36.9c1.9,0,3.5-1.6,3.5-3.5
		c0,0,0-0.1,0-0.1c0,0,0-0.1,0-0.1v-48.3C263.4,140.6,261.7,139,259.7,139z"/>
	<path class="st0" d="M223,180.7h22.3c1.9,0,3.5-1.6,3.5-3.5v0c0-1.9-1.6-3.5-3.5-3.5H223c-1.9,0-3.5,1.6-3.5,3.5v0
		C219.5,179.1,221.1,180.7,223,180.7z"/>
	<path class="st0" d="M277.9,125c0-2-0.5-3.9-1.4-5.5c-0.9-1.7-2.2-3.2-3.9-4.4c-1.7-1.3-3.6-2.2-5.8-2.9c-2.2-0.7-4.6-1-7.2-1l-7,0
		c2.1-2.9,3.4-6.4,3.4-10.2V86.7c0-9.4-7.7-17.2-17.2-17.2h-2.2c-9.4,0-17.2,7.7-17.2,17.2v14.3c0,3.8,1.3,7.4,3.4,10.2l-7.1,0
		c-2.6,0-5,0.3-7.2,1c-2.2,0.7-4.2,1.7-5.8,2.9c-1.7,1.3-2.9,2.7-3.9,4.4c-0.9,1.7-1.4,3.5-1.4,5.5h0l0,4.3l0,5.8c0,0,0,0.4,0,0.4
		c0,1.8,1.6,3.3,3.7,3.3c2,0,3.6-1.5,3.7-3.3l0-5.6l0-5h0c0-1.4,0.5-2.6,1.4-3.6c0.9-1,2.2-1.9,3.9-2.5c1.7-0.6,3.5-0.9,5.7-0.9v0
		l3.8,0c1.5,7.9,8.5,13.9,16.8,13.9h2.2c8.3,0,15.3-6,16.9-13.9l4.1,0c2.1,0,4,0.3,5.7,0.9c1.7,0.6,3,1.4,3.9,2.5
		c0.9,1,1.4,2.2,1.4,3.6h0l0,5l0,47.3c0,1.8,1.6,3.3,3.7,3.3c2,0,3.7-1.5,3.7-3.3c0,0,0-0.4,0-0.4l0-47.5L277.9,125L277.9,125z
		 M237.6,125.1c-5.7,0-10.4-4.4-10.9-9.9c0-0.1,0-0.2,0-0.3c2.8,2,6.2,3.2,9.9,3.2h2.2c3.6,0,6.9-1.1,9.7-3
		C248,120.7,243.3,125.1,237.6,125.1z M248.7,100.2c0,6-4.9,11-11,11c-6,0-11-4.9-11-11V87.4c0-6,4.9-11,11-11c6,0,11,4.9,11,11
		V100.2z"/>
</g>
<g>
	<path class="st0" d="M120.8,187.6H87.8v-6.9h18.3c1.9,0,3.5-1.6,3.5-3.5v0c0-1.9-1.6-3.5-3.5-3.5H87.8v-31.1c0-2-1.6-3.7-3.7-3.7
		s-3.7,1.6-3.7,3.7v34.6v0v13.7c0,0,0,0.1,0,0.1c0,0,0,0.1,0,0.1c0,1.9,1.6,3.5,3.5,3.5h36.8c1.9,0,3.5-1.6,3.5-3.5
		S122.7,187.6,120.8,187.6z"/>
	<path class="st0" d="M146.3,125c0-2-0.5-3.9-1.4-5.5c-0.9-1.7-2.2-3.2-3.9-4.4c-1.7-1.3-3.6-2.2-5.8-2.9c-2.2-0.7-4.6-1-7.2-1l-7,0
		c2.1-2.9,3.4-6.4,3.4-10.2V86.6c0-9.4-7.7-17.2-17.2-17.2h-2.2c-9.4,0-17.2,7.7-17.2,17.2v14.3c0,3.8,1.3,7.4,3.4,10.2l-7.1,0
		c-2.6,0-5,0.3-7.2,1c-2.2,0.7-4.2,1.7-5.8,2.9c-1.7,1.3-2.9,2.7-3.9,4.4c-0.9,1.7-1.4,3.5-1.4,5.5h0l0,4.3l0,47.5c0,0,0,0.4,0,0.4
		c0,1.8,1.6,3.3,3.7,3.3c2,0,3.6-1.5,3.7-3.3l0-47.3l0-5h0c0-1.4,0.5-2.6,1.4-3.6c0.9-1,2.2-1.9,3.9-2.5c1.7-0.6,3.5-0.9,5.7-0.9v0
		l3.8,0c1.5,7.9,8.5,13.9,16.8,13.9h2.2c8.3,0,15.3-6,16.9-13.9l4.1,0c2.1,0,4,0.3,5.7,0.9c1.7,0.6,3,1.4,3.9,2.5
		c0.9,1,1.4,2.2,1.4,3.6h0l0,5l0,5.6c0,1.8,1.6,3.3,3.7,3.3c2,0,3.7-1.5,3.7-3.3c0,0,0-0.4,0-0.4l0-5.8L146.3,125L146.3,125z
		 M95.1,87.4c0-6,4.9-11,11-11c6,0,11,4.9,11,11v12.8c0,6-4.9,11-11,11c-6,0-11-4.9-11-11V87.4z M105.9,125.1
		c-5.7,0-10.4-4.4-10.9-9.9c0-0.1,0-0.2,0-0.3c2.8,2,6.2,3.2,9.9,3.2h2.2c3.6,0,6.9-1.1,9.7-3C116.4,120.7,111.6,125.1,105.9,125.1z
		"/>
</g>
<g>
	<path class="st1" d="M54.9,152.8H22v-6.9h18.3c1.9,0,3.5-1.6,3.5-3.5v0c0-1.9-1.6-3.5-3.5-3.5H22v-31.1c0-2-1.6-3.7-3.7-3.7
		c-2,0-3.7,1.6-3.7,3.7v34.6v0v13.7c0,0,0,0.1,0,0.1c0,0,0,0.1,0,0.1c0,1.9,1.6,3.5,3.5,3.5h36.7c1.9,0,3.5-1.6,3.5-3.5
		S56.8,152.8,54.9,152.8z"/>
	<path class="st1" d="M80.4,90.3c0-2-0.5-3.9-1.4-5.5c-0.9-1.7-2.2-3.2-3.9-4.4c-1.7-1.3-3.6-2.2-5.8-2.9c-2.2-0.7-4.6-1-7.2-1l-7,0
		c2.1-2.9,3.4-6.4,3.4-10.2V51.9c0-9.4-7.7-17.2-17.2-17.2h-2.2c-9.4,0-17.2,7.7-17.2,17.2v14.3c0,3.8,1.3,7.4,3.4,10.2l-7.1,0
		c-2.6,0-5,0.3-7.2,1c-2.2,0.7-4.2,1.7-5.8,2.9c-1.7,1.3-2.9,2.7-3.9,4.4C0.5,86.4,0,88.3,0,90.3h0l0,4.3l0,47.5c0,0,0,0.4,0,0.4
		c0,1.8,1.6,3.3,3.7,3.3c2,0,3.6-1.5,3.7-3.3l0-47.3l0-5h0c0-1.4,0.5-2.6,1.4-3.6c0.9-1,2.2-1.9,3.9-2.5c1.7-0.6,3.5-0.9,5.7-0.9v0
		l3.8,0c1.5,7.9,8.5,13.9,16.8,13.9h2.2c8.3,0,15.3-6,16.8-13.9l4.1,0c2.1,0,4,0.3,5.7,0.9c1.7,0.6,3,1.4,3.9,2.5
		c0.9,1,1.4,2.2,1.4,3.6h0l0,5l0,5.6c0,1.8,1.6,3.3,3.7,3.3c2,0,3.7-1.5,3.7-3.3c0,0,0-0.4,0-0.4l0-5.8L80.4,90.3L80.4,90.3z
		 M29.3,52.6c0-6,4.9-11,11-11c6,0,11,4.9,11,11v12.8c0,6-4.9,11-11,11c-6,0-11-4.9-11-11V52.6z M40.1,90.3
		c-5.7,0-10.4-4.4-10.9-9.9c0-0.1,0-0.2,0-0.3c2.8,2,6.2,3.2,9.9,3.2h2.2c3.6,0,6.9-1.1,9.7-3C50.6,85.9,45.8,90.3,40.1,90.3z"/>
</g>
<g>
	<path class="st1" d="M325.6,104.2c-2,0-3.7,1.6-3.7,3.7v45h-33c-1.9,0-3.5,1.6-3.5,3.5s1.6,3.5,3.5,3.5h36.9c1.9,0,3.5-1.6,3.5-3.5
		c0,0,0-0.1,0-0.1c0,0,0-0.1,0-0.1v-48.3C329.2,105.8,327.6,104.2,325.6,104.2z"/>
	<path class="st1" d="M311.1,145.9c1.9,0,3.5-1.6,3.5-3.5v0c0-1.9-1.6-3.5-3.5-3.5h-22.3c-1.9,0-3.5,1.6-3.5,3.5v0
		c0,1.9,1.6,3.5,3.5,3.5H311.1z"/>
	<path class="st1" d="M343.8,90.3c0-2-0.5-3.9-1.4-5.5c-0.9-1.7-2.2-3.2-3.9-4.4c-1.7-1.3-3.6-2.2-5.8-2.9c-2.2-0.7-4.6-1-7.2-1
		l-7,0c2.1-2.9,3.4-6.4,3.4-10.2V51.9c0-9.4-7.7-17.2-17.2-17.2h-2.2c-9.4,0-17.2,7.7-17.2,17.2v14.3c0,3.8,1.3,7.4,3.4,10.2l-7.1,0
		c-2.6,0-5,0.3-7.2,1c-2.2,0.7-4.2,1.7-5.8,2.9c-1.7,1.3-2.9,2.7-3.9,4.4c-0.9,1.7-1.4,3.5-1.4,5.5h0l0,4.3l0,5.8c0,0,0,0.4,0,0.4
		c0,1.8,1.6,3.3,3.7,3.3c2,0,3.6-1.5,3.7-3.3l0-5.6l0-5h0c0-1.4,0.5-2.6,1.4-3.6c0.9-1,2.2-1.9,3.9-2.5c1.7-0.6,3.5-0.9,5.7-0.9v0
		l3.8,0c1.5,7.9,8.5,13.9,16.8,13.9h2.2c8.3,0,15.3-6,16.9-13.9l4.1,0c2.1,0,4,0.3,5.7,0.9c1.7,0.6,3,1.4,3.9,2.5
		c0.9,1,1.4,2.2,1.4,3.6h0l0,5l0,47.3c0,1.8,1.6,3.3,3.7,3.3c2,0,3.7-1.5,3.7-3.3c0,0,0-0.4,0-0.4l0-47.5L343.8,90.3L343.8,90.3z
		 M292.6,52.6c0-6,4.9-11,11-11c6,0,11,4.9,11,11v12.8c0,6-4.9,11-11,11c-6,0-11-4.9-11-11V52.6z M303.5,90.3
		c-5.7,0-10.4-4.4-10.9-9.9c0-0.1,0-0.2,0-0.3c2.8,2,6.2,3.2,9.9,3.2h2.2c3.6,0,6.9-1.1,9.7-3C313.9,85.9,309.2,90.3,303.5,90.3z"/>
</g>
</svg>
